<mxfile host="65bd71144e">
    <diagram id="Y6LpuMMitfnyd767KyvU" name="Page-1">
        <mxGraphModel dx="1004" dy="936" grid="1" gridSize="10" guides="1" tooltips="1" connect="1" arrows="1" fold="1" page="1" pageScale="1" pageWidth="827" pageHeight="1169" background="#080808" math="0" shadow="0">
            <root>
                <mxCell id="0"/>
                <mxCell id="1" parent="0"/>
                <mxCell id="2" value="" style="shape=image;verticalLabelPosition=bottom;labelBackgroundColor=#ffffff;verticalAlign=top;aspect=fixed;imageAspect=0;image=data:image/png,iVBORw0KGgoAAAANSUhEUgAAAk4AAAFpCAYAAABqGKfmAAAgAElEQVR4nOzdd1QVx/v48Te9F0FAUMEKWBDFQhR7i7Hr1x6DRo2xxF5iizX2gp9ETWJJ1MTEFnusUTRSFEUBFVGki4WuFOnz+4Mfe7wBFROUiPM6x3O8uzszz96L3MeZ2Rk1IYRAkiRJkiRJeiX1sg5AkiRJkiTpXSETJ0mSJEmSpBKSiZMkSZIkSVIJycRJkiRJkiSphGTiJEmSJEmSVEIycZIkSZIkSSohmThJkiRJkiSVkEycJEmSJEmSSkgmTuVUUlISERERZR2GJEmSJJUrbz1x6tOnDxYWFlhYWODg4ICHh4fKF/zs2bPp3bs3X3755Qvr+OSTT7CwsODy5cslavPx48dERkYqr0NCQqhVqxa9e/fm1KlT//xmSujy5cv079+frl27UrNmTfr168euXbveWHt79+6lWbNmpKWlvbE2JEmSJOl99NYSp/Xr12NqasqhQ4do0KABgwYN4u7du0ydOpXhw4cr1x07dozDhw/j7Oz8wro6d+7MZ599RqVKlV7Z7rZt26hWrRojRoxQjmVmZjJgwADq1q1L27Zt/92NlUBGRgbx8fHMmDGDoKAg2rRpw8yZMwkLC3sj7Z06dYr27dvj5OT0RuqXJEmSpPfVW0mcfH19mTt3LllZWVy4cIE///yTb775hpCQEABycnIAOHLkCDdv3mT48OFUrVqVY8eOsXDhQuX8gQMH+N///kd+fj6ffPIJdnZ25ObmkpGRgZeXF4mJiZw5c4acnByEEDx8+BAPDw8yMzPJzMzk5s2bREZGkpubi4uLCwsXLuTSpUscP36c8+fPA5Cfn09ERATHjx9XEpvMzEwyMjJYsWIF8+bNIzU1VeX+9uzZw3fffffC+1+6dCmdO3emXbt2GBgYMHDgQBwcHCjcJvC7775j3rx5WFtbo66uTlxcHEIIhBDs3LkTfX199PX1sbOzIywsjLy8PDZs2MCAAQPQ19enefPmnD17FoDU1FT8/f1p27Ytv/zyC6GhoSqxrF69mvT0dIQQzJ07F319fbS0tBg5ciQAkZGRzJs3j7CwMNavX8/Bgwf/1WcvSZIkSeWKeMMyMzNFlSpVBCBSU1NVzt25c0cAonnz5kIIIb744gsBiHr16omKFSsKQABi5cqV4smTJ8LV1VVoa2sLQCxZskRkZWWJESNGCEBUqFBBmJubC0C0a9dOxMXFCR0dHQEIDQ0NYW5uLszNzcX48eOFmZmZAMThw4fFsmXLlPJCCHH9+nUBCE1NTXHhwgXh5+cnzM3NhY6OjjA3NxdqampCQ0NDpKenCyGESEhIEA4ODqJ169bF3n9GRobQ1dUVly5dEkIIkZubK9atWyfatWsnhBDi2rVronv37mLt2rUiJSVFDBkyRAAiJydHbN++Xbi7uyt1HTx4UNy7d0/88ssvYtiwYcrx//u//1Pew7CwMGFmZiZu374tevXqJQ4ePKh8DkuWLBE9e/YU9+/fF/Pnz1di2rNnj3BwcBBCCHHx4kUBiKZNm4q1a9eKU6dO/YtPX5IkSZLKlzfe4zRixAju379Pu3bt0NHRUTn35MkT5e+3b99mz549AAwcOJA//vgDXV1d5byGhgarV6+matWqALi6ujJ16lR+/PFHPv/8c27cuMHjx4/R1dXFz88PCwsL3N3dAXB2diYhIYGEhAQ6dOhAUlISbm5udOzYUSWe3Nxcli5dCsBXX32Fjo4O3bt3R1NTk19//ZWEhASMjY3Jy8uja9euAGhpaTF58mR27NhR7P1/9913ZGZmYm1tTUhICCNGjODIkSOcO3cOf39/unXrxvTp0xk2bBjp6enY29tjZGREdnY2w4cPp06dOkpdvXv3JjAwkJUrV7J27VrluKurK35+fgB4eHgwaNAgHB0dAZRevV27drFx40Y2bdqEs7MzderUwcHBgZSUFOU9BTh+/Diurq4cO3aMqVOn0rlz55d/wJIkSZL0HtF80w1cv34dgDlz5qClpaUcT0pKYtCgQQD06NGD2NhY4uPjcXV1ZdKkSRgbG6Ojo0NWVhYffPABBgYGXL16lbCwMGrUqIG6ujp79+4F4IcffsDb25u6deuSnZ2Nnp4eT58+xdPTU6m/0JEjRwCoU6cO+vr6KrFu3ryZ/fv307BhQ0aMGIG7uztxcXEEBgbSoEEDlWurVKkCgLGxMWPGjHnh/R85cgQzMzM6duxIaGgo48ePV+KaN28eT5484dtvvyU9PZ24uDjS09OZP38+GhoaVKhQgcWLFxMcHIylpSULFy5kw4YN2NnZYW5urtJOjx49yMvLIzk5mXbt2inHnz17RlRUFGvWrMHT05M7d+6QmprKqVOn2L9/P/r6+uTk5FC9enUiIyPZsWMHv/76K5aWlq/6aCVJkiTpvfPGE6dCzyceubm5eHh4EB4ejp2dHcOHD2fx4sUAVKtWDWNjY06cOEF6ejrW1tZYWVkBcPPmTQBGjx5NXFwc8fHxfPDBB0ybNk2pu3///mhqapKZmcm9e/ewsbHhs88+AyAgIIBDhw4B0LdvX5X4cnNzOXfuHDo6OqxcuRJTU9Mic5kKqaur89VXX73ynk+fPo2vry++vr40aNCAXr16FUlI1q1bx+eff15s+fPnz/PTTz9Ro0YNJk6cSNOmTUlNTeWTTz5RromPjyc2NpZOnTqxc+dOjh07xpIlS5TzVlZW9OrVC3t7e2xsbJg4cSKdOnViy5YtaGqqfvzXrl3DyMiIunXrvvLeJEmSJOl99Naeqlu3bh15eXlERUWxYMECvv76a2xsbPjll19ITk5Weo+qVKmCv78/CxcuxMrKisWLF+Pg4EBgYCCnT58GwNHRkR9//BEomMxcuXJl+vXrR/PmzbG2tqZ3797KsJ+xsTGVK1cmJiaGx48fk5KSQtu2bWnTpo1KfKmpqRw9epTVq1fTuXNnIiIiVCZW+/v7M2DAANLT02nRogUODg5kZ2dz9erVF95zeHg4Xbt2xdnZGU1NTdq1a8fy5cuVidwABgYGKmX8/PzIzc0lJiaGBg0a4OHhQb169ahWrRoWFhZkZ2fj4OAAFCyzsHz5cmJiYvj8888JCQlh2LBhVK9eXalv/PjxVK9enR07dmBsbIy5uTkGBgaoqakp18TExACwe/duevXqhYWFhXLu6tWrhIeHv+rjlSRJkqT3whvvcZo+fTrjx49n5cqVeHt7Ex0djY6ODn369OHLL7/E1dUVHx8fkpKSALhw4QIbN24kMzOTjRs3Kk97bdmyhfv371O9enXc3NyUL/5Lly7Rp08fHB0dUVdXJyYmhtDQUPLy8gCIioqibdu2GBsbY2xsDICNjU2RYTqAZs2aMWHCBACcnJzo2LEjZ86cYeTIkdy8eZOKFSvStm1bjh8/DhQMw82cOfOFiYW3tzfVq1dHQ0MDgIkTJ3L+/Hm8vb3p0KED1apVY+LEieTl5eHi4sLSpUupXr06WVlZDBs2jJo1a2JnZ4e+vj579+6ladOmdO7cmaFDh2Jra4u6ujrNmjVj1apVCCHYu3cvHh4eKjG4uLiwZMkSTExMAGjVqhWTJ0+mXbt2aGlp0bJlS+7evcuKFSvYv38/q1atUsr++eefdO/enWXLljF16tR/8OlLkiRJUvmiJsT/fyb+DQoICGDlypVkZGSgqanJhg0bsLa2Vs5v3bqVo0ePqpSZOHEibdq0QVNTk5ycHHr16sWJEydYs2aNytDclClTlMRl1apVGBkZYWNjQ0pKCsOGDQOgUqVK9O3bl59//pnU1FTmzJmDq6srAPv37+fnn38GYMyYMXz00UdK3Q8ePMDDw4O7d+/i7OzMiBEjqFatmnL+2LFjHDlyhM2bNxd731999RUff/yxMlEbICIigpMnTzJ27FgllujoaNq0aUOHDh2oW7cuWlpa+Pj4sHHjRlavXo2NjY1KvYcOHUJTU5O6detSo0YNAP766y8CAwOVxA8gNDQUS0tLJWkqdO3aNXJzc1FXV8fZ2Znk5GSMjIwICwujfv36ynWJiYmEhYXRsGFDtLW1i71HSZIkSXqfvLHEadiwYejq6lK/fn3u3LmDn58fjRo1ws3NDW9vb4KCgmjcuDG1atXi9u3bxMbGUq1aNUxNTYmPjycrKwtDQ0MuXrxITk4Ot2/fBqBRo0bKsFXNmjWJjo4mKCiIpKQkmjVrhp6eHj4+Pri5uVG/fn02bNhApUqVcHR0xNramujoaFJSUrCwsEBLS4uMjAwl5qCgID7++GNu3LhB5cqViYuLIzQ0lK5du2JpaYm3tze+vr5s27aNhg0bvom3TZIkSZKk/7A3ljitXLmSu3fvqhwLDAykXr16hISEqPRs/N3du3dJTU0lMDBQOebs7IyRkRH29vYEBgYqK4sXXlP4WghBUFCQciwlJYULFy5QrVo1nJ2diYqKwsTEBFNT0xLdx/NtFerRowe9e/cuUXlJkiRJksqPtzJUVygtLQ0DAwMyMjKKTIp+XkZGBnl5eaSnp+Pt7Y2bmxsGBgZoaGigr69PWloahoaGSp2A8loIQXp6unIsNzeXlJQUdHV1MTQ0JDMzE01NzSJPlL0s5sK6JUmSJEl6v73VxEmSJEmSJOld9taWI5AkSZIkSXrXycRJkiRJkiSphGTiJEmSJEmSVEIycZIkSZIkSSohmThJkiRJkiSVkEycJEmSJEmSSkgmTpIkSZIkSSUkEydJkiRJkqQSkomTJEmSJElSCcnESZIkSZIkqYRk4iRJkiRJklRCMnGSJEmSJEkqIZk4SZIkSZIklZBMnCRJkiRJkkpIJk6SJEmSJEklJBMnSZIkSZKkEpKJkyRJkiRJUgm90cQpODiYK1euqPwRQvyjujZv3syYMWNeu1xMTAzTpk37R20W5+HDh8TGxv6rOsLDw7l169a/qiMpKYmIiIh/XN7f379E18XHxzN06FAyMjKKPe/p6UlQUNA/jkOSJEmS3iVvNHFyd3enW7duTJ8+nenTpzNgwACWLVuGj4/Pa9cVFBTEmTNnXrtcWloa58+ff+1yL7J06VJOnTr1r+r49ddfWb9+/b+q48yZMyxevPgflb1//z4tWrQo0bWHDx9m165d5ObmFnt+3bp1xMfH/6M4JEmSJOldo/mmG+jUqRO7du0CCnp/fvrpJ3r06EFiYiIA169f59GjRwBYWlrSuHFjpWx4eDh37twBICoqSqXeK1eukJCQQKVKlTA2NqZmzZoliufx48dcu3YNgPbt26Ojo/PCa/38/EhMTMTa2pqGDRsCsGHDBsLCwgDIzMzE09NTud7MzIyKFStSs2ZNYmNjSU5Opn79+gDcvXsXbW1tqlWrRo8ePUhLS1PK+fj48OTJEwDs7OyoW7cueXl5nD59mrp16/LkyRNiY2MxNTWlefPmxMXFERAQwP379zlx4gTVq1fH0dGRO3fuEB4ertTr4uKClZVVkfs6d+4c+fn5nDhxAm1tbTp06EBgYCAPHjwgJiYGIQQDBw7E1NSUKlWqoK2tzZkzZ9DX18fb25sOHTrQrl27IvV6eXlx8uRJ/P39GT16NL169UJdvSA3z8jIwN/fn1atWpXoc5IkSZKk/6I3njg9r2rVqsybN4/w8HD27dtH+/btmTBhAlZWVsTFxXHjxg3Gjh3L8uXLCQsLY+HChVy9epXatWtz7NgxatSoodS1bt06srOzMTU1xcvLi1atWrFx48aXJkKPHz/miy++ID8/n4iICHJzc/nss8+YMGFCkWsnTZrEsWPHaNiwIWlpaXz66acMGjSInTt3Eh4ezsKFC0lOTqZfv34sXryYY8eOcfXqVbp06cK+ffs4e/YsPj4+fP/99wBs374dS0tLJk+ezNGjRzl48CD+/v48fvyYn376iaSkJKAgWQsJCUFDQ4OuXbtib29P7969SU9Px9/fH19fX6Kiojh37hyPHj1i69at9OzZk7y8PCZNmkT//v2pVasWw4cP59tvv6V3795F7u3s2bPk5+ezdetWjIyM6NChA99//z0tW7bE0tKSNWvWcP36db7//nscHBzQ09Njzpw5jB49msDAQDZt2sT169fR1dUlNDRUqff27dv06dMHW1tb5s+fz8OHDxk3bhwA58+fZ8aMGf96iFKSJEmSypR4gxo3biyGDBlS5PjUqVNFgwYNhBBCxMfHCyGESEtLE4MHDxYDBw4UQggxevRoMWLECBEXFydyc3PFkCFDRI0aNZQ6CssJIUTfvn1F7dq1xdOnT4u0FRwcLFxcXIQQQqSmpoqYmBghhBBJSUli9uzZYtasWUXKPHz4UNjb24s9e/YIIYR48uSJyMrKEkII0bNnT2FlZSWysrLEoEGDRI8ePYQQQmRkZIjmzZuLjz76SAghxI4dO8Tnn3+u1Dl79mzh4eEhhBBi0qRJSkx9+vQRfn5+ynW7du0SI0eOFJmZmaJOnTriww8/FEIIERAQIHR1dYWvr68QQojdu3eL4cOHK+UWLlwoVqxYobz29PQUTZs2FbGxsUXuTwgh9PT0VF4//36eOnVKGBoairt374otW7YIQBw+fFgIUfA51a5dW/z0009CCCG6d+8u/vzzzyL116xZU3z11VfK61u3bomZM2cWG4skSZIkvSveao9ToRYtWrBnzx7l9ebNm/Hy8iI4OBhHR0cAjh49ytChQ7GwsACgQoUKKvNysrOz2bx5MwA3btzg4cOHL5yHU8jQ0JD4+HilvaysLJVerEKJiYlER0dz6dIl2rRpozLcdf36dQYNGsSzZ8/YvXs3W7duBUBPT4/OnTvj5+f3yvt3cHDg4sWL+Pn5cfz4cRwdHbl+/TpQMAR5+/Zt1NTUMDMzo2fPnkDBMKCFhcULJ2lfv34ddXV13N3dadmyJXv37uXKlSvcvHkTGxubV8akqamJu7s79+/f59atW6SlpZGdna30OBW2a2BgQMeOHZX36fkh1P379/P111/TtWvXIhPo69aty8qVK18ZhyRJkiT9l5XJcgSFk8PDwsKoXbs2CxcupEePHgwePFjlur9PYM7JyQEKnmzr2rUrZ8+eJTg4mOrVq5OWlkZ+fv5L242MjKRLly54eXnRo0cPHj9+XOx1Dg4OrF69mn379uHo6IiFhYUyd+jp06eYmJgAoK+vT7169ZRy2dnZJbr/wvvIysoiKyuLiIgIgoODCQ4OxsDAgKZNm5KXl8etW7do0KABALq6uhgZGb2wzhMnThAXF4eZmRnBwcHUr1+fSZMmYWtrW+Tay5cvKzFAwdyzxo0bY2ZmRrdu3diwYQM1atTAzMyMqKgoMjMz6dq1q0odfn5+3L9/nxs3bgCwZMkS5s+fT9u2bZk5cya6urolei8kSZIk6V3y1nucnj17xpYtWzh+/DjLly+natWqXL58GT09PY4cOaL0vEBBgvX8HJ2AgAAAJkyYQHJyMqtWrcLOzo6dO3dy+vTpV7Y9cuRI7O3t2b59O+rq6jx48ECZmP48TU1NvvjiC0aNGsVff/3F/v37qV+/PmFhYbi5ueHt7c3UqVMxNjbmgw8+KBLfi3h5eTF58uQi102dOpWmTZuqHMvMzCQlJYXg4GBatmzJgwcPCA4Ofmn9PXr04Msvv3zV24CrqytaWlrK64sXL6KlpaU86Xf69GmcnJywtrYmMzOz2CUk0tPTsbS0pFatWgAcP36cHTt2KPdR0qf2JEmSJOld8lZ7nJ49e8aiRYvQ09OjZcuWyheytrY29+7dU1mXaPbs2Vy8eJHMzEyys7PJzc1VeklatGiBnZ0dVapUITc3V+XJtpcRQqCmpgYUDIn98ccfxV6Xn59PRkYGampqdOjQATc3N7Kzs5V4C5OC+Ph4ZfL3/fv3uX37tko9fn5+PHnyBE9PT5YvX64SB0DLli1p1aoVQ4cOJTY2lmfPnpGTk8OyZctQV1fH1dX1pcOP165dU55OnD9/PkuWLMHX15fs7GyioqJYuHChyuTtvztz5gw5OTm4ubkRHx9PQEAAkZGRbN++Xblm+PDhWFpa8ueff5KTk8O+ffvYs2cPU6dOJT4+XumJa9euHZ9++in379/n4sWLnDt3TqWtUaNGqfTOSZIkSdK76I32OJmYmBAYGMiSJUvIzs7mf//7Hx07dlQSltmzZ9OkSRMGDRqEi4sL9+7dU8q2atWKBQsW0K5dO7S1tbl16xZ2dnYADB48mF9//ZVhw4YBBQmMjo6OkhQ9T0NDA21tbQDmzZvHgAEDmD59OpaWlhgYGBQbd0JCAj179iQ+Ph43NzeOHz/OL7/8go2NDdeuXaNJkyaYmJhw4MABJk+eTGJiIo8ePSI2NpY6deoA0KRJE1JSUujevTvdunWjR48e6OnpAdC6dWuioqJQU1Pjiy++YMmSJQwcOJAHDx7g6OjItGnTyM/P5969e8pTghoaGpibm6OpWfCRNWzYkEaNGjFgwADmzJnD7NmzadOmDRcuXGDWrFncunWLXr16qfQsPa9waLRLly5s2rQJJycnBg8ejLu7O+bm5mhoaADw22+/kZeXx+jRo2nWrBmGhoacPXsWZ2dnAAYOHIiWlhbLli3Dy8uLhg0b4uLiQteuXVWGFjt37lwksZQkSZKkd42aKG4cphTt2bOHrl27EhkZSUZGBq6urirnExISuHjxIn369CEyMpLQ0FA6deoEFAx9Xbp0iQ8++EBZR+l5hw4domXLliQmJvL48WNat25dbAzXrl3DxcWlyPEbN24UG1OhI0eO4OrqqjI5PCAggJycnCJDa1lZWSxYsIDIyEh2796tHA8MDKRu3bovTGAkSZIkSXp3vPHEqTzbuXMngYGBTJs2jVWrVnHlyhUOHjyIpaVlWYcmSZIkSdIbIDf5/RecnJzIzMxkzJgxhIaGcuDAAZk0SZIkSVI5JnucJEmSJEmSSkj2OEmSJEmSJJWQTJwkSZIkSZJKSCZOkiRJkiRJJSQTJ0mSJEmSpBKSiZMkSZIkSVIJvfW96iRJKl++/fZbPv/8c65evUqLFi3w8fEpsldhaGgopqamhIaGKufy8vLw9vbG19eXjz76CGtra3788UeVcs2bN8fX11d5/eWXX5Kens6GDRswNzfH3Nycu3fvvjC2v5cvLQ0bNiQkJITMzMwSl2ncuDE3btwo8WbgJeXg4IClpSUBAQGkpqYq96ynp4e9vT2BgYEvLOvt7Y2bm5tSJjAwkI8//pibN28CBRuj+/n58fTpU2rVqoW3tzfTpk3jm2++YebMmUr5Q4cOcevWLWUvz0Jubm7k5OSgr6/P+fPnVY4/f11xZs6cyapVq/7x+7J161YGDBjwj8tL0ovI5QikMnPgwAEGDx5MkyZNqFixImfOnEFLS0v5hZyYmMiNGzeoWrUqQgju379f5BeuhoYGkydPZu3atcqxypUro6WlRWRkZJE21dTUaN68OT4+PsXG5OjoSEJCAgkJCaV2n3l5eQghlO1yiqOtrY2zszNXrlwptXZf1/PvbeHf3dzcMDExoWrVqvzwww+4ubkBqFz37Nkzbt68SWZmJgYGBjg4OKhsZF29enUaN27M/v37cXJywsbGhlOnTgHQtm1bcnNzadWqFWpqakRHR+Pp6UleXh52dnY4OzsTHh5OcnIyHTt2pHXr1vj4+JCbm4uamhq///47zs7O1KxZs9h7UldXJz8/v9TfKw8PD8aMGaNso1QSL4rFysoKIyMjlS2nXoeamhpqampK3c+3U9L7f/46NTW1Yjf2LlRc0tOrVy/q1avH8uXLWbBgAfXr16dfv37Kz0thmcJyPXv2pGLFipw+fRp3d/fXvufCn80X2blzJ3p6egwZMuS165akV5GJk1Rmfv/9dw4dOsTPP//8ymt9fX1p3rz5W4iq9A0cOJCaNWuybNmysg5FKiVVq1YlICAAc3Pzsg7lP+XkyZNMnjyZCxcuqGxV9bZNmDCB1q1b079//zKLQSq/5Bwn6Z3wriZNAB9++CF5eXllHYYkvXHbt29n0qRJZZo0ASxYsIBq1aqVaQxS+SXnOEnSG9akSRMuXbpU1mG8FUlJSZiZmRU5np6ejqamJunp6cWeL05aWhra2tqkpaWVuMzrSkpKIjU1lcqVK790KPVtSUpKAkBTUxN9ff0SxZSWlsajR4+ws7NDS0uLsLAwlaE2S0tLjI2Ni5SLjIwkNzeXGjVqoK6u+n/oR48ekZaWBhQMi3344YdUqlSJiIgI5T8B6urq1KhRAyjY5DwmJobPPvsMX19fHj58iLW1tVKfEIKwsDCVMgAPHjygQoUKrzXkWRK//vorISEhRTZjl6TSUPa/KSSpBMLCwkhPTy/2nIaGBvXq1QPg2bNnhIaGYmhoqPILOjExkdjYWOW1jY0NFStWVF6Hh4crXxTPq1+/vvKlkp2dTUhICLa2tpiamr5W/EZGRiW+NjMzU5nwHBYWhr6+Ps7OzpiZmaGtrQ0UTMj28vICCuaPVKpUCRcXF2rVqgXA9OnTMTMzIywsjLS0NDw8PPDx8cHa2ppvvvmmSJt16tShRYsWbNu2TTmmra3N7NmzqVu3LgBr1qxRmYO1du1aqlSpQnx8PFOnTiU7O5uEhAQqVqxIv3796N+/P+np6fz5559s3rwZLS0tUlNTqVixIitXruTKlSvs379fqW/ixIm4ubkRHh7Oxo0bCQ4ORldXl3v37vHpp58yefJk5bPYvHkzgYGBLFu2DBMTEwD8/Py4fPkyEyZM4Pjx4+zYsaPIfU6ePJnmzZuzePFiYmJiePDgAbdv36Z+/fr89ttvGBgYlPhzKm2pqakMGTKE2NhY9PT0qFSpEh07dqRfv37Y2NgABfMCfXx8WLNmjVLu5MmT9O/fn6ioKGxtbXFycuLZs2fKeVdXV+bOnUuPHj2UY8nJybi5ufHgwQOePn2q8vMZGBhI9+7dsbW1xczMjKioKJYuXcqFCxcYNWoUwcHBPHr0iA8++ABfX1+ysrJYvHgxR48exdbWlvz8fHx8fBXTMxYAACAASURBVGjXrh2TJk1CW1sbb29vWrdujb29PSEhIUpbI0eOZNasWbRp06ZU38uaNWuq/PuWpNIkEyfpnbBmzRquX78OQEBAAFlZWTRp0gQNDQ2MjIw4c+YMAJ6ennTr1o127dpx7tw5pfyePXv4+uuvsbW1BcDQ0BBra2s8PDyoWLEiY8eO5fLlyzg6Oqq06+npiZ6eHjk5OcybN4/Vq1ezfv16Jk2a9FrxF37xlURYWBjOzs44OjoqSUGFChVo3749M2bMAGDSpElUrVoVa2troqKiABg7diwVK1bkyy+/5NatW4wePRonJyfWrFnDli1b6N+/PwEBAVSpUoUzZ84QHh5O/fr1AdDT08PCwoK9e/fSuHFjNDU1ycvLo1GjRhw5coQPP/wQe3t7fvrpJ4KDg1m7di0mJiY8fvyYHj16IITgq6++onbt2ly7do3169cr7bm7u7N9+3YqVKiAlZUVu3fv5tixY3Tq1Im//vqLDRs2MGHCBKpVq0ZaWhoDBw7ExsaGJUuW8PTpU9LT05kxYwZZWVnMnj2blJQUli5dSnR0NImJiezevRuA2NhYLl26xIQJEwgNDcXLy4vvvvsONTU15b21s7Nj69atbN++nbVr19KsWTOePn3K7t27X2sS+et8niV1+/ZtvLy8+OKLL5SJz2vWrOHQoUOMGzeOfv36YWFhwcmTJ1USp+IMHTpUeaIsJiaGGTNm0KpVKyXhP3HiBA8ePMDGxoa9e/cycuRIAIKCgujevTtDhgxh6tSpypDb+fPnMTIy4uzZs6xevZrZs2fj6+tLdnY2c+bM4dSpU8qTeIXat29PXFycMrdPU1MTa2trTp48SZcuXUrvjStGUlISGhoab7QN6T0mJKmM7N+/XwwdOvS1y82ZM0cA4smTJyrH09PTRZs2bYSdnZ1o2LChSElJUc5t3LhRTJs2TXnt7+8vrK2txa5du4QQQnTu3Fl06dLlhW2mpaWJRo0aCTs7O9GoUaPXivfw4cNi5syZJb7+5s2bAhAnT55Ujv3888/CxsZGJCcnCyGE0NDQEHv37i1S9vTp0wIQQUFBKsfDw8NVXgcGBgpXV1eVY9u3bxeASExMFEIIkZOTI/r06SPatGmjXHPhwgVhZmYmQkJChBBCtGnTRlSpUkVkZGQUae/u3buiffv2Ku/736WkpAhtbW1x/PhxIYQQEyZMEKampuLGjRsq1+3Zs0doaGgIIYR4/PixAMTgwYNF7dq1RUJCghBCiAMHDoghQ4YIIYRYv369mDVrVrFtjhs3TnTo0OGFMZVEy5YtlXZLy9WrV4WxsbE4dOiQyvGFCxcKJycnIYQQ27ZtE3Z2diIuLk45v2/fPgGIqKgoIYQQHTp0EEuXLlXOBwcHC0B5j4UQYteuXaJLly5i1apVws7OTuTm5gohhBg7dqywsbERjx49emGcq1atUj6Lp0+fCmdnZ/H1118XuW7nzp0CEPHx8SI8PFzo6+sLDw8P0apVK+WaLl26iO3bt5f4PSqpJUuWiLFjx5Z6vZIkhBBycrj0zsnNzS32eGxsLNeuXVOGYQ4fPvzCOlxcXOjatWuJ2wwKCiI2NpaDBw/y9OlTdu7cWeKympqa//hR8+c9ePCAnJwcoGDOSHHvQ8WKFTExMSE0NFTlePXq1V+7PU1NTapWrVpknk1eXp7SOxMZGcmXX35ZZI5K9erVSUtL4969e3zxxRcvbef5e4mMjMTDw0PpCSs0YMAAtLS0VIbf2rZti7W19Qvrv3fvHqGhoQQHBxMSEkJMTIxyX1euXCnSQ/I6ilvq4t8yMTHB0NBQZUgZwN3dnVu3brFv3z5q1aqFurr6S3tT4uLiVF6HhoZibGyMhYWFcmz79u1UrlwZBwcH7t+/r/Lz0qBBgxJP7k5PTycuLo7Ro0cXOVe/fn1lCLDwZ2j8+PFUqlSJEydOKNe9ibllkZGRtGzZstTrlSSQT9VJ7yBjY2OaNGmizPcpdPv2bapXr467uzvOzs7s3bv3hXV4eXlx8OBBlWPe3t588803TJo0idatWzNu3Dhlrsi+ffvQ0dGhUaNGNGzYkB9++KHE8VapUuVfPeFz//59Ll++TN++falQoQJQkGxMnz6dhg0bKn8uXrxIo0aNGDduHFOmTGHYsGHs3buXoKCgErfVqFEjdHV1AcjIyOD3339n1qxZKteYm5urzIl52SKDJbn3nJwc4uPjVcq8yPNJhb6+PjNnziQgIEClfKH9+/czduxYPDw8mDJlipLsLlu2jNGjRzNq1Cjls9y7d2+pL0z5T/39C79KlSrk5+fz6NEjTpw4gb6+/ksnyz99+pTvv/+evXv3smXLFhYuXMj69etp0qQJAOfOneOvv/5i1KhR9OzZEz09PZV/KwMHDnyteHV1dVWSskKpqalKQlw4nKylpcWMGTNYvny5SryS9C6Rc5ykd46VlRVpaWkqTw6lp6ezevVq5fXYsWPZvn27Srlt27Zx5MgRoKBH5LvvvlOZa9GwYUMePHjAoEGDGD9+PAA6Ojrk5uZy69YtxowZA4CTkxMPHz58rZj/yZfDiBEjMDAwIC0tjREjRjBv3jyV/527u7vz6aefKq8rV64MFCQGampqxMbGsnbtWkJDQzlz5gyNGzd+ZZvXr1/HyckJDQ0N8vPzGTlyJB07dlS5Jjw8nEePHr00wXkdBgYGODs7v/K6v69GDtChQwfat2/Pnj17lPsv1Lx5c/bs2YOpqSmpqanK/B4DAwNWr15NdHQ0Z8+eZcGCBcTExHDhwgVat25dKvf0T2RlZb0yeYuLiyM5OZno6Ghlvl5x1zg6OnLgwAH27NnDiBEjVH5Onj59Ss2aNbG3twcK/q28TnJdUpUrV0ZPT49NmzapTNRu2LAhVlZWyiKopdEb+3dOTk4EBQXJBTClN0L2OEnvpJiYGJWhqpSUFLy8vHBwcGDTpk14eXlx9uxZlcU17ezs6NixI4aGhlSqVIkBAwaoPKZtYGDAihUraN68Ofb29tjb26Ourk52djanT5/mxo0bbNq0iczMTK5evcqGDRtKFKu/v/8/GtpZtWoVW7duJScnB0dHxyLDJxYWFkqc9vb2Kk+ELV26lO3bt3P27FlycnLo3Llzids9fPgwixcvxtjYuETLAPj7+xd7vGLFimhraxcZevq7/Px8srKyXlnf86u9GxoaUrt2bXR1dRk4cCBHjx4tcr2LiwtmZmZoaGgU+xSkra0tn376KX5+flhaWnLs2LGXxvmmJSUl8eTJkyLH/f390dLSUoYvDQ0Ni+3heV6/fv3YtWsXa9eu5Y8//mDfvn0q9QUHB1O3bl0++ugjAgMDOXz4MAEBAbi5ubFkyZKXJjMffPCB8nSjnp4eBgYGRXpvoeDzqlSpEp999hl16tRRjhf2Ok2ZMoXo6OgiCW9pqFy5slzHSXpjZOIkvXMuXbpEnTp10NLSUjlmamqKra0t4eHhaGpq0qVLF5Uv1I4dO7Jp0ybOnTuHoaGh0qtUkvZ0dXWpXLky4eHh5OTk0Ldv35fOoXpecnIyDRo0eL2bpCDxaN26NX/88QczZsxQ+fIrKUNDQ6ZNm0ZqamqJy9jY2DBo0CDmz5/PkiVLXtob4erqSp8+fYpdykFLS4sHDx7w+eefv7S9zMxMwsPDlfrmzZvH5cuXVa65evUqeXl5TJkyBSgYRiwc/mnevDnOzs588skn3L59W0k+goODi23vwIEDREdHK68rVar0n3gCKysri6pVqxZ5jH7RokXMmTOHdu3a4erqyr179/D09FTOr1u3jgEDBhRJQDQ0NJg0aZKSpPz222+cPXuW5cuXs2rVKoKDg5XV+/Py8vjzzz/p0KEDurq6bNq0SaWukJAQkpOTAdU5hiYmJkycOJEpU6aozJO6e/cuc+fOZdq0aSrrORVq3LgxNWvWVBK40paamsqWLVtKvV5JAjlUJ72DmjRporJx6bNnz/Dy8sLCwkLlMe1jx44xa9YsEhMTVcqbmpoyf/58rK2tcXNzY/DgwUDBF/DfV/hWV1fnzz//ZNGiRcycOVM57u3tjbu7O7Gxsa/8H3P79u1LtK1MoYoVK9KmTRtlHapmzZqxYsUKBg8eTJs2bbC0tERDQ4OmTZuqxKumpoanpyf79u2jU6dO9O7dm6tXr7J69Wq+/PLLErdfqFevXpw9e5b27dvj6elJvXr1lEnhhfvvzZgxg+PHj9OzZ0/atm2r7Elmbm7O+PHjGT58OF999RVjxoyhY8eO1KhRg0WLFlGvXj2WLl2q1JOZmYkQgtmzZ3Pu3Dlat27NqFGj6Nu3L97e3qxbt46DBw+ip6dHamoq+fn5yrCWlpYWHTp0YPXq1djb2yu9iJ6enixevFgZdoSCnpgff/yROXPmqAzjpKWlqXy+ZSUyMpJly5ZhaWkJFCRFDRs2pEOHDgB89tlnnDt3jt69e/Pxxx9TvXp1oqOj2bx5c7HJn4aGBu7u7mzbto2NGzfStm1batasybBhw1R6E2fNmkV+fj6VKlViyZIlLFiwgFq1auHu7s6OHTuIjY3lxo0b3Lt3j9WrV5OTk0Pv3r05dOgQo0aNwsjIiP/7v/9T1h+zt7dnzZo1ypYnampq5OTkcPnyZVxdXdHQ0KB9+/YcO3YMf3//N7I8QeGcLkkqbTJxkt45mpqaaGlpKevzZGZmsnXr1iL/S3Z0dCQxMVFZjfl5VlZW/PLLL3z++ecYGRmhoaHB8uXLWbFihZKMaGtr8+jRI7799tsi+8ypq6tjYGCgskbQixTOMyqppKQk/P39iYqKonbt2gAMGzYMLy8vBg4cyPz589HT0yvyVKCrqytbtmwhOzub4cOHK8dnzJjBV199VST+vz8Jp6mpSevWrZXjampqrFixAgMDA7Zs2UJ8fDzHjh3D0NCQjh07cuXKFZo0aUJqaipr165l4cKFrF69mi5duijzombPns3gwYNZvHixMs9m4sSJdOzYkQsXLtCjRw8MDQ2ZMmUKpqam9OvXTxliXbRoETt37sTFxYWHDx+qxFW5cmWVeVEffvghs2bNonbt2qipqdGiRQsqVKjAtWvXqFu3Lhs2bMDMzIwBAwZw7NgxIiMj2b17N1u2bMHa2pr9+/eX+YKJtWrVYunSpSrHDhw4QPv27ZXXampq7N69m/379yvDaVevXqVSpUrKNYsXL1aZD2ZhYcG5c+eUOX/PJ2aFunTpogyR9u3bl759+7Jv3z7CwsJYsWKFkgD5+/vTunVrWrdurTycoaamxqBBg2jdurUyAd/e3p6+ffsq9bdp04Zly5bh6uqqHJsyZQo2NjZvZDslbW3t/0QvolQ+yU1+pTLzOpv8Pu/mzZskJCTQtm3bV167a9cuunXrRnR0NE+ePKFVq1bFXlc4z0VPT08ZAmrWrNlrxfUiQUFBjB49+r3ZduV90LNnT3bv3o2+vn5ZhyIV44cffsDIyEhODpfeCNnjJL1z/r7Gz8t8/PHHAK/cIuX5JKmsNyiV/vuuX7/Os2fPZOL0H/X3pUokqTTJyeGSJEmvqXBLFOm/69ChQ2UdglROycRJkiTpNXl7e5d1CNJLhIeHqyyBIEmlSSZOkiRJr6lq1aplHYL0EiNGjMDBwaGsw5DKKTnHSZLegsKlBSTp5MmTyqr3BgYGymrlCQkJREVFvXCF96ysLM6dO4eRkZHKtiyPHj3i+vXr2NraUq9ePeX47du3MTAwwMzMjIsXLyrHrayscHFx4fz588qWQlDwdOqtW7eKtN+8eXNljqCnpyfLli0jKyuL2bNno6Ojo/LUX2JiIr/99hudOnVSSVxOnz6tPK369OlTEhMTGTduXLH3uWTJEnJycpg/f/4/3scuLCzsH5WTpBIpq92FJWn//v1i6NChZR3GGxcYGCh69epV1mFIpWjgwIEiISHhtctt27ZNqKuriz59+oguXboIHR0d8c033wghhDhz5owwMTERd+/eLbasp6enAES9evVUju/bt08AomLFiiIpKUkIIURGRoawtLQU33//vYiJiRF9+vQRVlZWwtLSUixfvlwIIUS1atVEzZo1RZ8+fZQ/7u7u4vTp06J9+/YCEC1bthR37twRMTExokOHDsLBwUF4eXkJPz8/0adPH9GiRQuVWL777jsBiHHjxqkc19PTE3Xr1lXa6d69u+jatat4+PBhkfu0srISgMjJyXnt97eQt7e3aN++/T8uL0kvI3ucJOktqFmzZlmHIJWifzrH6fHjx2hpaXHgwAFycnJYtGgRM2bMwMnJCShY6V1HR6fYsr///jsGBgbk5ORw9uxZZVHMQgkJCWzatIm5c+eSn59PXFwcULBJ8IEDB1iyZAleXl7Kps1ubm6YmZnxzTffFGmrVatWdOnShfnz52Nvb89XX33F2bNnCQgIUNbPOnDgAAkJCUqZoKAgpk2bRr169Xj06FGROocMGcLcuXMBlB6rpk2bcuDAAZo2bQoUbKadkJBAvXr1+OGHH0q8uv/fhYWFyX9z0hsj5zhJ0luQkZFR1iFI/zFaWlpMnjyZ6tWrs2LFCgDMzMxU9hz8u8WLF+Pi4sLy5cuLnNuwYQO+vr7Klih6eno0atRIOf/8Xn+vEh4ejp+fn/L6yJEj9OvXT2UoEFBZNDQzMxMnJye2b9/OlStXVLYI+uKLL1TK6ejosHz5cmrWrKnyb+P8+fM4Ojry9ddfs2jRohLH+3ctW7ZUuXdJKk0ycZKktyAkJKSsQ5D+wwrnA1WqVAkTE5Mi57OysggICMDExIQpU6Zw4cIFzp8/DxSskG9mZkaPHj24dOkSXl5eQMFWRNevX39hm97e3gQEBLB+/XrlT+FWRiYmJkXWM+vcufNL5xx5eHjQvn17TE1Nyc3NVdnq6M6dO0Wu19HRQU9PTyVBO3HiBEeOHKF3797F7n/4Oop7HyWpNMjESZLegucn4Urvvn+7jtOzZ884f/48y5YtQ0tLi7Vr1wIQHR1dZG9FgHPnzikJkZ2dHdWrVycnJ6fIddHR0axcufK14oiLi1P+FP6cJiYmEhMTo3Lt89u4/N2tW7fYt28fLVq0oFatWqxdu5YffvhB2XD5ZT2uZ86cAWDPnj1ERkYqi4pmZ2ezfv36Et/L3xW+X5JU2uQcJ0l6C+SCieXLv1nHKSsriwEDBvDBBx8oSUbhnoehoaHExcUV6e05f/48BgYGREREsGHDBjQ0NFi6dCmdOnUiJCRE2Y9RX18fb29vLly4oMwbepnmzZsX2YexkHhuNy5NTc2X7svo5eVFXl4ev/76K5cuXSIkJISAgAASEhIwMTEptqcqPz+fvLw82rRpAxQMQwoh6NmzJ6ampqipqbFo0SImT578yvv4u+KSSkkqLbLHSZLeArlgYvni5ub2j3s0dHR0OHr0KHPnzmXcuHEqCUnXrl2VieKF/vrrL86dO0fnzp0xMzOjVq1aypIBxSUIp0+fplu3bly5cuWlP3cvS+YbNGjARx99pLyeOXMm/fv3V3qQCuXn55ORkUFKSgpVq1alSZMmmJmZ0aJFC2xtbVm1ahWAyvIJAHl5eZw/fx5PT0/atm1LdnY2ubm5zJkzh0GDBimT0f+pa9eu4eLi8o/LS9LLyB4nSZKk1+Tt7c3GjRtLvd5nz56RnZ1NQkKCsu5RcnIy/v7+jBs3jk8//RSAYcOG0alTJ5X5QYVcXV0xMjIiNTVVSY4SEhJ49uwZQgji4+OxsLDA29ubHj16FCmfmJhIREQEN27cIC4ujqysLBo3boympiaTJk1izpw56Onpce7cOa5cucJHH33EvHnzWLx4MVOnTlXqsbCw4OTJk8p9pKSkKMN/O3bsYP369axYsQI3NzcOHTrE3bt3GTlypLLmWVZWFhkZGRw9erTYOF/G1dWV5cuXM2rUqNcqJ0klIRMnSXoLzMzMyjoE6R1w9uxZ/u///o/z58+TlpZGhQoVqFKlCra2tkrSVKjwZ6pp06Y0b95cGQ5TU1PjzJkzuLu7Y2JiQkJCAn379uXWrVtkZmYyePBgfvvtN2rUqIGlpWWRGHx8fJg+fTq6urosWLCAxMRExo8fT2BgIPv27aN///5kZmaio6PDvHnzaNCgAR9++CGzZ89WqcfY2JirV69y/PhxzMzM2LlzJ0eOHAGgZ8+e+Pv7Y2dnBxQsw9CnTx8sLCyU8pqamgwaNIhVq1a9duIEBQuAStKboCaeH8iWpLfo999/59ChQ/z8889lHcobFRQUxLp169i+fXtZhyKVkkGDBrFx40bMzc1fq1xISAjBwcH07du3yLnHjx+rrPANYG9vz71796hbty6Ojo4q5+Lj41FTU1NZEuBFkpOTiY2NJTk5mVatWr1WzO+iiIgIfH19GTJkSFmHIpVDssdJkt4CuRyBBAVLB/w9ASpkZWVFv379ihxv0KBBsdc/3zvzKhUqVKBChQolvr482L17t0ycpDdCTg6XJEl6TQ8ePCjrEKSX0NXVJT09vazDkMopmThJZcbBweG1hzreVbVr1y7rEKRSZGtrW9YhSC+Rn59Ps2bNyjoMqZySiZNUZu7cuVPsYn/lUUpKSlmHIJWi923Y612TnZ2tTESXpNImEydJegvi4+PLOgSpFMnPU5LeXzJxkqS3QK4cXr5kZWWVdQiSJJUR+VSdJL1Bx48fJzU1tUQrh/v4+Cj7gT18+JBz587x8ccfAwV7gVWpUkVl49LCBQgBLC0t+fTTT5U6fHx8MDQ05MSJEyptNG/eHF9fXywsLDAxMcHCwgJfX99irylOlSpVALh//34J34Hyo0aNGqSlpREXF4e3tzfffPONsq/a6/L29qZBgwb88ssvjB07VuVccHAwhw4donHjxnz44YdAwWd948YNJk2axKFDhwgODsbW1pa8vDzs7Ozw8fEBUD77QsbGxtja2nLz5k2V83Xr1mXlypUMHDgQJycnNDU1y9Xq9vn5+QwePLisw5DKKbmOk1Rmbt68SYcOHUhNTS32/MyZM5UtG0rKzc0Nb29v2rRpg4uLCx4eHiUuW7NmTdLT03n06FGpxZOfn48QgtzcXHR0dF4Yb+G1ZmZmVKlShZs3b5KXl4eGhgYA06dPZ82aNUXqzs/PBwoWPdTQ0MDOzo6cnBzu37/Prl27+Oyzz3B2dgYKvqzV1dXJz8/HysqKrl27cu/ePWXtICcnJ3r27KlcU1jm+d6ywu1B3sdfG8/f+/r16xk9evQ/Tpxe198TohYtWnD//n3y8/OxtbUtkji1bduWhg0b8uOPPyqJ08CBA/H19aVKlSrUr18fS0tL8vPzVT7v0vD3n5myEBkZyerVq9m8eXOZxiGVTzJxksrM+7QA5ujRo7l06VJZhyKVkvXr1/PJJ5+8N0+FvmsiIiJYt24d3377bVmHIpVDco6TJEnSa5JJ8H9f4R55klTaZOIkSW9BWQ9dSNLL5Ofnk5ycXNZhlKrydj/Sf4dMnKT3yuPHj/nf//5XZNL0m1aeJt5K5evzvHnzJt9++y3dunUr61BKjZeXF0FBQWUdhlROycRJeq/Mnz+fyZMnExoaWtahSNJ/woQJE1i9ejVmZmZlHUqpadmyZVmHIJVjMnGS3ht79+5l27ZtDBw4kF27dpV1OJL0n+Dp6cmIESPKOoxSZWJiQteuXcs6DKmckomT9N6Ijo7G3d2dBQsWcO3atbe6JYOc41S+1KpVS/Za/oc9efKEwMDAsg5DKqfkApjSe2PLli0MHDiQatWqUa1aNeLi4t5a2+VpTgzAmTNnlMm3tWvXplGjRuzbt09Z36lZs2Y8ePBAWSjTxsamXA2fVK5cGWNj47IOo1SVp59RAwMDWrduXdZhSOWUTJyk98KuXbu4d+8eY8aMQU9Pj48++ohNmzYxatSot9K+k5PTW2nnbfH29iYyMhKATp060ahRI/744w/lvI2NDQYGBhw/fhyAhg0blqvECQoeNKhbt25Zh1FqylOvaFZWFlWrVi3rMKRySiZO0nvhyZMn5Ofn07RpU9TU1EhJSSEzM5ODBw/Sp0+fN95+YZJRXixcuLDIse3bt5foWHnQsmVLqlWrVtZhlCoXF5eyDqHU5ObmcvnyZYYNG1bWoUjlkJzjJL0XLl26xPjx47lx4wZBQUHcvn2bOnXq8OzZs7fS/ou2lZHeXeXtcffyNvR4+fLlsg5BKqdk4iSVezt37uSXX36hY8eOmJmZYWZmRtWqVXF1dWXFihVvfN+10twHTPpvyM/PLxdDj1euXMHU1JSVK1cyd+5c9PX1y8UWSF5eXjRu3Lisw5DKKZk4SeWeuro6kyZNonfv3irH27dvT4MGDd7401GXLl0qV/NHJIpsuPyuatq0KSkpKWRlZZGVlUVGRgaffPJJWYf1r7Vq1Ur2OElvjJzjJJV7Q4cOZejQoUWODxkyhCFDhrzx9lu0aMHevXvfeDvS29OiRYuyDkF6CSMjI2rUqFHWYUjllOxxkqS3wN7evqxDkKT3xtOnT7l7925ZhyGVU7LHSZLegoCAgLIO4b0THx8PQF5eHtra2piZmREfH4+BgQFCCAwMDAgLC8PIyAgAc3NzkpKSADA1NSU5ORkdHR2ys7OxsLBQqdvBwYHExEQqVKhAYmKicr5wyMvY2JiIiAgMDAyU+iIiIqhQoQIWFhbk5+fz5MkT8vLyMDIy4unTp8THx2NkZEROTg5GRkbk5eWhqVnwKzo/P5+EhARsbGzIzc3l2bNnpKamYmFhgZGREbGxsWRlZSlxxMfHo6mpiZGREZqamsTHx6Ovr4+amhr6+vrEx8dToUIFUlNTyc3NBcDCwkJ5z94Wb29vZRj7+b//XXJyMoGBgVSuXJm4uDgsLS0xMTHB0tJSuSY/P5+//voLAwMDIiIi3kr80vtJJk5SmUpMTOTKlSuvvO5lv1RfVc7IyIjq1asrX5CFnjx5wv3796lXrx7R0dGoqakpa79cv34dBwcH9PX1VRYGdHR00c+5XAAAIABJREFU5ObNm0RFReHu7g5AcHAwERERyiapf/31F0IIDA0NyczM5N69e9y9e5d9+/ZRrVo1tm7dSu3atXFxccHIyEi5t/T0dK5evcqdO3cYPXo0MTExACoxPX36FCEEbdu2JTw8nDt37lChQgUePHiAlZUVkZGRtGvXDhsbG7y9vYmNjcXKykqJPzAwkBo1aijt2tnZUa1aNczNzXn8+DGmpqacPXuWxo0bY2VlRWJiInZ2dvj7+5OUlMTDhw8BsLa2BgoWuvzjjz/Izc3F5f+xd+fhUVX348ffk2Uy2dfJnpCQlQQIECQwAyJuFRTxp9aFilprsXWpVavVr1WrqG21YuvSonUrWpdWKC4VEVFZJuxrIPtO9slktkwymcnM/P7gyX2ILEZJcpPhvJ4nD8yde+/5zJKZT84593NmzGDfvn0olUrUajU9PT2oVCrpmLy8PDweDwaDAX9/f+BYUqNQKAgICOCcc85h48aNmEwmcnNzsVqtKJVK6urqmDZtGh0dHbS1tTFlyhQOHjxIQkICZrOZyMhIgoKC6O7uprW1lZiYGAIDAyktLcXtduPxeMjIyACO1V7Kzs7G5XKhVqv56quviI+PB44V8tTpdCQkJDBhwgRqa2sJCwujo6ODzMzMQVed/etf/2Ljxo3k5+fT09Mj9SharVasViuJiYls3bqV6OhoWltbmTNnDps3b2bChAlMmjSJxsZG3G43DoeD+Ph4mpubqaysRKVS0d/fz8SJE3E6nahUKuDY5fVVVVVMnz4du92O0WhEqVSSmZmJ2+1mz549dHd3S3FUVlaiVCpJTEwkISGBrq4u9Ho9CoWC6OhoKisrmTBhAm1tbfT19QHHekVP1ktz0003sX79+kEFYzUaDXv27OE3v/kN//vf/6TXIzs7m5qaGlJTUwHo7e1l4cKF6HQ6Nm/ejEaj4fDhw6SmpnL48GE0Gg1ffvkldrudyy67jLvvvpubb75Z+kOjsLCQHTt2UFxcTGxsLJMmTUKr1eLxeDCZTJhMpkGx1tXVodVqaW5u9qq194SxReEZ6UuKBOEU1qxZw+23384tt9yC0+mUkhStVsuUKVNoaGhgypQpfPDBB9TU1KDRaDCZTDQ3N2M2m7nvvvvYs2cPWq1WSm4yMzOxWCxkZWVRXV1NaGjooMRhKEpKSqQPdjixMOD3TeLq6upYu3Yt99133/eK47tMnDiR2tpagoODCQkJob29/ZT7fN9zDvy/qamJ2NhYmpqaTrgPwOFw0NHRgcPh4MILL+TLL79EpVKRkpKCxWIhODh4UPsTJ06kv7+fgIAAAJxOJz4+PgQGBuJwODCZTOj1embNmiX1+Bw+fJgFCxZw9OhR6urqmDdvHt988w0TJ06ks7OTuLg4wsLCMBqN1NbWkpycTEhICA6HAwB/f3/S0tIoKSlBrVZLidLJ1NbWnjA3xmQy0d/fT0xMjLRt1apVqNVqpk+f/p1zaU52zpNtA+jo6CAwMPCEJF/4ftra2vjb3/7GE088IXcoghcSiZMgmzVr1rBu3TqvuPz5dA4dOsSKFSv4z3/+I3cowjBZtWoV/f393HnnnXKHIpxEXV0dv/rVr/jkk0/kDkXwQmKoThBGwcCwm+A9rr/+erlDGBYVFRUcOXIEgIKCAmlYczwLDw8nPT1d7jAELyUSJ+GsUFFRMWgulUql4uqrr5YxImG8Kykp4bzzzpM7jDPy9ttv88Ybb5CUlMS+fftwOp18/vnn4z556u/vp6amRu4wBC8lEifhrLBp0ybuuOMOAPz8/MjLy2PFihWsWbOGzMxMmaMTxpsXX3zRK4aBlixZwmWXXUZkZCRGo5Ff/epXbN26ddwnTna7fdBkdkEYTqKOk3DW+OUvf0lHRwetra3odDomT57Mrl275A5LGIdycnIIDw+XO4wzFhYWRmRkJACBgYFecxm/y+UiPz9f7jAELyV6nISzRlBQ0KB6PIGBgTJGI4xnF198sdwhDKs//OEPbNy4kfj4eH7yk5/IHc4ZCw8Px+l0yh2G4KVE4iScNbZt28bvfvc7AL744gvUarX4q/QHstvt0uLFfn5+KJVKent7pQWTlUolPj4+2O12/P39cbvdUgkCb7Ft2zaWLFkidxjDYqDeld1up6SkhBkzZsgd0hkxm82i6KwwYsRQnXDWUKlUREVFcfDgQWpqati0adOQim8KJ7r00ktJSUkhJSWF3//+9wDS7ZSUFD788EMOHz5MSkoKS5Ys4ZZbbpE54uE3d+5cuUMYNg8//DBff/01qampPPfcc3KHIwhjmuhxEs4aM2fO5N577+Xee+8F4NZbb+X555/n1ltvlTmy8WfTpk0nbOvs7Dxhm8FgGI1wZGGxWIiOjpY7jGEn5v0JwumJHidBEIQf4MUXX5Q7hDNWXV0trU/X0dGByWRi8eLFMkclCGOb6HESzhodHR3s378fAJvNxqZNm7jhhhtkjkoQ5HPbbbfhdruJjo7GYDAwe/ZsbrvtNrnDOmPh4eFi/qIwYkTiJJwV4uPj2bx5M5s3b8blcqFUKvn5z3/OTTfdJHdowjjkLZXgN23aRE1NDRUVFeTm5n7nunvjhdlslqqhC8JwE4mTcFa48sorKSwsBJAWmU1OTpY5KmG8crvd32uh57EsIyNj3Be8/DaVSnXaxZwF4UyIxEk4a0yYMEHuEIRxyGg04nQ6iY2Nlbb19fUBUFlZCUB2dvZpz1FfX098fDwqlYqysjLq6urIzMwkMTGR3bt3k5SURHZ2Nm1tbQQGBhIeHk5lZSUKhYL+/n78/PzweDzYbDYaGxuZNWsWVqsVgJaWFuLi4pgwYQKbN28mLS2NyspKKaaWlhYuuOACDAYD27ZtIz4+HpvNRkJCghT/gIFjBuJob29n3rx5HDx4EIvFMmi/bx8bERGBv78/er2e8vJy1Gr1GU2e1+l0p01OT3V/d3c3e/bsEXWchBEjEidBVvX19bz33nsnvS8sLIy0tDT0ej2tra3k5eVhs9no7OzEZrN957nz8vIoLS0d7pC/07c/0BsbG+ns7Dzhce7du5e8vDypEOfAcXq9nq6uLgIDA3nnnXe45ZZb6OzsJCUlhfDwcHQ6HU6nk8DAQIqKitDpdLS1tREdHU16ejpNTU0Ag2LQ6XTSNqPRyIcffsiiRYuoqqqiuLgYgClTppCUlDToC/LAgQNMmzaN5uZmGhoapO0ajQYAk8kkPccajUY61+kUFhYSFhZGe3s7lZWVpKenU1VVRV5eHm1tbfj7+9Pe3n7S18/f35+ioiLMZjMWi0WKaaDtgWOys7M5//zz2bJlCxERETgcDjIzM9HpdBw9epS8vDxMJhM2m42kpCSysrKora3l8OHD+Pr6kp6ejr+/P83NzajVaqKiouju7sZisRAZGcn//vc/Vq9ezXXXXUdpaSlms5mUlBQCAgKIiorCbDbT1taGWq1mwoQJuN1uvvzyS3JycoiJiWHr1q2kpKRQWFjI0aNHCQ8PR61Ws2PHDqZNm0ZLSwt+fn4EBQXhcrnw8Tl2HY/D4WDbtm1MmDBB6iUym82EhoYSFRVFdXU1UVFR6PV6qdirxWJhx44d2Gw26urqCAsLo6+vj7CwMGli+ICBY6xWK/7+/litVnbt2kVLSwt2u13a78orr2TixIls376dI0eOkJSURG1tLfPmzaOmpobk5GQCAwM5evQoTqeTCy+8EJ1OR29vL/7+/kRHR2M2m2lqaiI+Pp7s7Gw++eQTOjs70Wq1zJkzhwkTJqDX6+nv7ycvL49Dhw5RX19PZmYmsbGxpKamUlpaSm1tLQUFBcCx+mFz5syhvLzcq6/oFOSl8AxUrBOEUbZmzRp++9vf8utf/5ro6Gi+/PJLtFotOp2OsLAwMjIySEpKQq1WU1tbi16vJzk5mUmTJnHgwAG2b9/OOeecI52vtLSUqVOnSl/EfX19BAcHExoaitFopL+/n71793LOOeewfft2tFotMTExlJWVUVlZiVarJScnh48++giDwYBWq8Xj8bBr1y4eeOABdDodubm5HD58mIaGBjIyMlCr1bS2tlJQUEBERATbt2/H4XAAEBISgt1up7y8nNdee4333nuP5ubmE/5KHkiYbDYbVVVVTJs2DTg2j6a2tpbOzk6uuuoq9u/fT05ODkFBQYOOO15dXR0BAQEkJiYO2+vk7+9PQEAA3d3dJ9w3sMbZDxEZGSl96ZvNZiIjI+nt7UWhUNDb23vKc/v6+kqVoQd6Xb4dT3h4OL6+vng8HoxGIzExMYSHh9Pe3k53dzeRkZE4HA6cTifBwcGEhYVhtVoxGo0oFApCQ0Px8fHBZrMREhKCSqWit7cXp9OJUqlk1apVVFVV8dprr2EymbBYLAQHB+Pr60tAQAAOh4Pe3l5UKhUhISEolUrq6+sJCwsjIiICk8kkPY7jGY1GIiMjsVqtBAYG4ud34t+2A8/JwFIpwonq6uq47LLLxDwnYUSIxEmQzZo1a1i3bh1vv/223KGMqEOHDrF8+XJ27NghdyjCMFm1ahVqtZqrrrpK7lCEkxCJkzCSRB0nQRAEQRCEIRJznISzyqZNm9iyZQsAixcvZsaMGdL8EeGHcblcbNmyRRo2HJh7NHAVozB27dixQ1oyZ+7cuahUKu655x58fX1ljuzMiDpOwkgSiZNwVujr6+PJJ59k5cqVXHzxxVitVnbu3ElaWhqrVq2SO7xxbf/+/fzoRz/iySefRKFQYLFY+Mc//sFvf/tb7rnnHrnDGzE6nW7cD9X5+/vz0EMPMX/+fOx2OwsWLCAmJoabb75Z7tDOiKjjJIwkkTgJZ4W//OUvFBcX89VXX1FUVCRt/+tf/ypjVN7B7XYD8Jvf/EbqvWtsbGT16tVenTiFhITIHcIZO75XUKVSMX36dBmjGT6ix0kYSWKMQvB6FouFlStXMn369EFJE8Ddd98tU1TeIzs7+6RXf0VERMgQzejxlirbA2w2G1999ZXcYQwLm802qHyGIAwnkTgJXq+6upqenh6pRo0wvD755BPsdjvLli3j0KFDbNu2jaqqKv75z3/KHdqICg0NlTuEYeN2u3nppZcAmD9/vszRnLnQ0FCvS2yFsUMkToLXO3ToEN3d3SxfvlzuULxSTk4Ofn5+XHPNNZSVlbF27VoUCgXPPfec3KGNqIGiot6grq6O119/nfXr15Oeni53OGdMLLkijCQxx0kQhGGxePFifHx8uPbaa6moqOC8887jzjvvJCsrS+7QhNNoaGhg+fLlrFixwiuSJoDW1la++OILucMQvJTocRK83qJFi7jvvvt49NFHcblccofjdWJiYk5a0iE+Pl4kTWNcXV0dt912G7feeivXXnut3OEMm8DAwGGtni8IxxOJk+D1YmNjmThxIi+99BIffPCBtL27u5tHHnlExsi8Q2trq3RlHRxbg++RRx4hNzdXxqiEobj88stRqVT4+vpy99138/rrr/PHP/5R7rDOmEqlIiYmRu4wBC8lhuoE2eTk5JzR6unfx9KlSwkJCeHZZ59l48aNBAcH09zcjNVqpaKigpycnFGJwxvl5eUxffp0XnzxRQwGA7t27SIvL4/HH39c7tCE7/Dwww9jsVjo7u7mjjvuQKfTkZycLHdYZ8xqtVJXVyd3GIKXEomTIJuKiopRW8E8IiKCG2+8kSuuuAKLxSItqHv++edLi+YKP0xkZCQbN24EIDg4mN7eXq+ocfRdZsyYIXcIZ+y6664bdDs7O1umSIZXcHAwqampcocheCmROAlnlbCwMMLCwgBEL9MwGnhOwTsKQw5FaWmp3CGMWwaDgc8++4xly5YN2n7o0CEyMjJ4/fXXcTqdnHvuuZxzzjl8/vnnUiXwoqIidu7cecI5FQoFGo2Gnp4evvzyS1E5XBgxInESZFVSUoLRaBz0xXsyOp1OWgvtTHg8HjZv3kxwcDDnnHMOAB9++CGVlZUsW7YMm81GTEwM77//PhaLhfvvvx+Affv20dXVxf79+wed7+abb+bTTz+ls7MTgNmzZ7Nr165Bc37a2tpobm5mxYoVaDQaiouLhxzvxIkT6enpoa2t7UwfuleZO3cu27ZtO+X9u3fvpqCgAF9fX/bu3SsVPm1ra6O7u5u2tjbmzp3Lq6++SkdHB/PmzcPlcrFgwQKeeuopQkJCuOmmm/jb3/5GUlIS/v7+1NfXA8e+oJ1OJx6Ph127dqFQKAgMDESv13P06FF+8Ytf8N5775GQkIBOp0OhUKDVanG73Wzfvh049j5UKBRERUURFxdHWVnZyD9po2zKlCkkJyezfv16tFotOp2OoKAgZs2ahV6vZ//+/dx2222DjnG5XBQVFbF7925cLhf33Xcfl112GVOnTqW1tRWLxcIFF1xAcXExU6ZMobq6msWLF0vHb9iwgQ0bNrBz504xx04YMQqPx+OROwjh7HT48GEuuOACenp65A4F4JRJjZ+fHw888ADr168nOTmZqqoqysvLSUtLY+bMmZSWlnLFFVewZ88epk6dyu7du6Uk79NPPyUoKIiKigp++ctfDjrv3r17yc/PR6VSjcrj8xZBQUHcdNNN/P3vfz/lPgOvpUajQaVS4XK56OrqoqSkRLrvxhtvZP369ej1eu68805KSkooKirimWeeAY5djWmz2dBoNLz33nskJiZiMBjIysrikUceobOzk6eeeor58+fz5Zdfsnv3bjQaDfHx8Rw4cIA5c+bQ1NSERqMB4IUXXuC2224jICBAiu14dXV1KJVKkpKSRu7JO0vU19ezePFi9u/ff9Kq9oJwJkTiJMhmzZo1rFu3jrffflvuUEbUoUOHWL58OTt27JA7FGGYrFq1isrKSlauXCl3KMJJGAwGrrzySt544w0yMjLkDkfwMiIVFwRBOIuZTCaMRiMA0dHR3zlsPh5YLBbKysro7++XOxTBC4nESTgr6PV6DAYDUVFR6PV64uPjR60Uwtmio6MDvV5PQkICUVFRcocjDMGGDRt48803KSkpweVykZiYyNq1a8f9As1qtZolS5aIC0CEESEKYApe76uvvmL+/PlcdNFF3HPPPVx44YUsWLCA1atXyx2aV3nxxReZPHkyP/7xj+UORRiizMxM3n77bY4cOcKhQ4dQKpWsW7dO7rDOWH9/P3q9XupJE4ThJHqcBK/X19dHTU0NOp2OmTNnUllZyeHDh7nvvvvweDzcdNNNcofoFRobG0lJSaGkpIS2tjavX2R1OK7ylNvx838UCoVXXajgcrlwOBxyhyF4IdHjJHi9hQsXEhMTI31JZGdnc+WVV3LBBRdIV1AJZ+5f//oXTzzxBCqVir/97W9yhzPidDqd3CEMm08//ZRzzz2X1tZWFi5cKHc4Z0ypVJKamkpcXJzcoQheSCROgtf75JNP0Ov1J2y/6667CA8Pp6WlRYaovMsbb7yBv78/N998M5deeumgNQG9lTfNn3nrrbdISEhArVZjt9vlDueM+fr6elXvmTC2iMRJ8HoGgwGn03nC9oKCAtLS0ti1a5cMUXmXxx9/nPz8fACWL1+OxWKhoaFB5qhG1kDRU2/w4YcfsnbtWq6//npeeOEFucM5YwEBAeICBWHEiMRJkM1oLvILx6p/H89isVBdXT1q7Xszg8FAfX09r776Khs2bKCtrc3rE9LRWmdxNOl0Oj7++GO5wxCEMU1MDhdkM5qL/MKJQyvr16/HbDZ7xZwOOb3yyivYbDZqamrw8Tn2t5ifnx9/+ctfxBV2Y9yuXbuYNWsWAHa7nUOHDklLEY1nDQ0NrFmzhocffljuUAQvJHqcBNmMVo/TlClTCAkJGbTO3BdffMGzzz7LQw89REBAwIjH0NzcTF1d3Yi3I4cvv/ySOXPmoFarpZ/FixdTV1cnevTGuD//+c9cdNFFPP300yxatIiDBw9y3333yR3WGUtJSUGj0VBRUSF3KIIXEomTIJvR6nEqLS3F5XLx7LPP8vvf/5758+dzxRVXcPvtt49aKYLExETS0tJGpa3RtnPnTh577DGptwkgJiaG+Ph4qqqqZIxM+C6/+c1v+OSTT/B4PCxatAiLxUJhYaHcYQ2Lzs5OKisr5Q5D8EJiqE7wesuWLWPZsmXs2bMHu93OokWLpOGJ0aJQKFAoFKPa5mhpbGw8YVt0dPQJc8qEsWfg98DbhrRMJhPt7e1kZ2fLHYrghUTiJJw1Zs6cKXcIgjDmOZ1OnE4nQUFBWCwWent7UalUBAUF0dvbC0BoaKj0h4DFYiEsLIy+vj48Hg8Oh4Oenh4CAwMJDg6mp6dHOrfL5cLHx4eenh78/f3p7e1FrVajUqlobW0lKCiIkJAQbDYbHo+H7u5ugoKC8PHxwWKxoFQqUSgUBAQEYLFYCAoKoq+vj+DgYCwWCwA+Pj50dnbS0dHhVSUjhLFDJE6CrCwWC21tbSiVSlwuF3CsBktUVBStra2EhIQQGhpKY2Mjvb29REVFER4ejtVqpauri4yMDAwGA35+frjdbvr6+vD39weOVQwf+ECPiIiQPljdbjddXV1ERUXR3d2NUqlEqVQC4HA4pJ+MjAzMZjMGg4GIiAisVivJycnU19cTGBgIIP3rcrno7u4mPDxcOvfAB3t9fT29vb0cPXoUt9uN3W4nKiqKrq6uQc/Ft7cN3A4JCZFiOp6vry8hISH4+vqecK7TnVdOBw8eJCMjg5CQEGlbd3c3NTU1FBQUAMcm9tbV1ZGbmytVH9+5cyczZsxAp9Oxf/9+Zs2aRU5ODp2dnRgMBrRaLRUVFbS2tmKz2YiIiEChUOBwONDpdFxyySXY7Xba29uJiooiPT2dpqYm4NgwanNzM319fezduxetVktBQQF//etfUavV5Ofno9Vqqa6u5uDBg+j1erZv347FYiEnJ0d6v5nNZiIiIlAqlWzYsIHo6GiWLl1KW1sbVVVVVFVVMW3aNLRaLc899xyhoaH4+vpiMBgIDAwkJiaGo0ePEhoaSmFhIVarldbWVlpaWlCr1Wg0Gr755hv8/I59bPf29uLxeOjt7ZUej9PpHDRv0GAwoFQqSUhIoLu7G7vdTnJyMhaLBYfDIa3f6OPjg9vtxt/fHx8fH7q6uoiLi+N///sfPj4+hIWFkZmZSWNjIxEREVLNJ4PBQEtLC1OmTKGzs1M6Z0NDA0lJSWRnZ1NbWyvFEhwcjJ+fH42NjYSHh9PY2MiPfvQj4uLi+Pjjj0lJSSE3N5fq6mpcLhfl5eWkp6ejVCopKSlBrVbj6+uLWq2mpKSEjIwMWltbycjIoKSkBDj2OxkXF0dfXx9Wq5XQ0NARflcLZxuFx+PxyB2EcHZas2YNV199NbNnzyYjI0MqRJmYmIharaa2thZfX18KCwvZvHkzer2e3Nxc0tPT2bdvH3q9nqKiIoxGI4GBgTidTkwmk/SlbDabCQsLw+FwkJeXJ9UVcjqdNDU1sXjxYj777DNCQkKkFeGtVisWi4XMzEyys7M5cuQIZWVlTJw4kQkTJuDr68vBgwe5/vrreeedd5gzZw5Go5GjR4/S1tZGWloaVVVVLFu2jPfff58rr7yS119/nYqKCubMmUNQUBCxsbFERkZSXFwsLduh0+nIzc2lvLwcrVY76HZSUhIWiwWr1Qog3b9gwQIaGhpQKpWUl5cDkJ6eTl9fHy0tLdx+++2sXr2a5ORkoqOj0el00rGxsbEsWrSIqqoqqQL2lClTSEpK4vPPP5f2G2gPoLa2lpycHGpqarjoootISEhAp9Ph7+9PT08PWq2WZ555hrCwMO666y7a2trYsGEDmZmZAERERLBu3TpmzpxJWFgYTqeTWbNmcfjwYfr6+gBIS0vD4XBI74XjlzX505/+xNy5c0+51MlAvEFBQWRnZxMcHDyk92FaWhptbW3fq/DjY489xpw5c7jkkksGbQ8NDSU0NJSWlhZyc3Ol123gtRvg7+9PSkqK9NpFRUWRn5/P1q1bSU5Oxmg0YrPZpPfA5MmT8Xg82Gw2qbBjZ2cnHo8Hg8HAxRdfzNatW+nt7SU3NxePx4NCoaC8vJzQ0FBmzZpFc3MzRqORefPm0djYiMVioby8nJycHPz8/HA4HISEhEgV9g0GA19//TULFiygo6NDijs1NZWamhomTZpEWVkZkyZN+s7ny+PxUF5ePqR9h4PNZmPJkiU8/PDDLFiwYFTaFM4eInESZLNmzRpefvll/v73v5Oeni7NlUlNTaWtrY3U1FSqq6ulL97j1dfXk5SURENDw0nvH9Da2kpYWNiQv0RHwqFDh7jmmmvYtm0bMTExssUhDJ9Vq1bhcrm444475A5FOIWnnnrK6+ZuCWODGKoTZJWUlCTNQzg+AUpNTT1h2/EGrlA7XdIEkJCQMBxhnrGIiAiRNHmZmpoauUMQTqOuro5t27Yxd+5cuUMRvIxInATZjHblcDllZWXJHcIPduDAgUHLp8TGxjJnzpwhHWswGNi2bdugbenp6UydOnVYYxTOzOHDh7n77rvZtGmT3KEMC5vNRn9/v7QMkCAMJ5E4CbKx2WwnTHgeSRqN5oS5JosXL+bpp58e8bZNJtOItzFSXn75ZV577TXmzp1LcnIyO3fu5KKLLuKBBx6Q5sOcikql4sknn6SlpYVzzz2X2tpalEolubm5/OpXv2LKlCmj9CiGX15entwhDIvS0lIeffRRryof0dHRwWeffcZDDz1EZGSk3OEIXkYkToJswsPDR6VqN8DevXvZv38/L7744qDJorGxsaPS/pEjR2hubiYpKWlU2htuK1euZPny5QQHB9Pc3Mwll1zC888/z0svvXTa44KDgwkJCaGwsJD33nsPi8VCf38/l19+OY888gjr1q0bpUcw/AYmsI93//rXv6SLI7xFeHi46G0SRoyoHC7Iprq6GqPROCptFRYWolKpuOGGG8jIyJB+RuNS5ejoaKZPnz6u5zhVVlZKE+yTkpIICAj4zt6mkwkLCyNtTA+QAAAgAElEQVQqKorPP/8cvV7P3r17hzvUUTOeexGP99RTT7Fs2TK5wxhWHo8Hl8sllYoQhOEkepwE2aSlpRERETGqbf75z39m7ty57Ny5k0suuUSqHTSS/Pz8CAkJGbXetZFgMpn405/+JN0ODQ1l6dKlP/h8ISEhXHTRRWzatMlrlvgYz7Zv3y53CMPK19cXs9nMoUOHmDhxotzhCF5GJE7CWcHlcuHxePjmm2/weDy43W4+/vhjfH19mTx58oi23d7ePu7XzHr//fdpa2uTSkbU19ej1+uJi4uTOTJhOMycOVPqpfH19ZU7nDMWERHB/PnzxZIrwogQiZMgm9Fa5BeO1VLq6+vj008/lQoIjhYfHx/a29upq6sjPT19VNseLrfeeiv/+Mc/pNsPPPCAVJsqKirqB53TbrcTFBQ0XCEKZ8hut7N7925mz54tdyhnzGQysXnzZs4//3yvmcQvjB1ijpMgG5VKNWp/3U6fPh2VSsWGDRtGpb3j5eTkoNFopOrY49HxS6QAzJ49m/r6emw22/c+FmDjxo0899xzXHjhhcMWo/DDhYSE4OPjI2uh2OEUERFBQUHBuB4eF8YukTgJsomLizvpl+pIkuODtKamZtCyLuNRa2srAF1dXTQ3N7NmzRpef/11UlJS+OCDD7jllltwu90nPXbixInYbDaqq6uprq7m/fff5//+7/9YtmwZM2bMGM2HIZyE0Wjktddew+Vy8fzzz59Qd2u8CgkJEUPJwogQQ3WCbFQqlbRg6Wi57777eOutt6TbSUlJPPfccyPaZmRkJL29vSQmJo5oOyNp/fr1XHfddZSWltLd3U1hYSGLFi0C4K677kKj0aBQKE567MSJE3nhhRe48cYbqampISoqinnz5rFq1arRfAjCKaxdu5Z9+/aRk5PDnj17WLJkidwhnTGTyURFRcWoD8sLZweROAmy6uzspK+vb1R6gt59912cTuegbaNRjiA0NHRUrt4bKXfeeSeLFy+WbsfGxp4wD+axxx47ZeK0dOlS0tPTSUpKwmQyodVqxRfaGPKzn/2Mn/3sZ3KHMawiIiKIi4ujsrJSzHEShp1InATZdHV1UVVVRW9v76gkTgsXLhzxNk5mvF+pVFBQcMrEr7m5mdjYWHJzc095vFqt5vLLLx+p8ISzQH19PWlpaZjNZmpra5k+fTq7du0iJiZGqit2/H69vb1YrdZxXTtNGLtE4iTIxuVynXJejByqqqpOuaacw+GgtbWVCRMmAMeSPo/HM6S19kJDQzl69Ch6vR61Wi1tr6+vJzExEaVSKbUPx9a1M5lMOJ1O1Go1ra2thISEEBoaSlVVFQqFgv7+fpRKJRMnTuTAgQOoVCqioqKIjY2lqqqKlpYWZs6cSXBwsHRegJSUFOrr6+no6GDKlCm0t7djsViIjIykqamJ2bNnS4/T19eXqqoqkpKSaGxsJCIigoaGBvR6PXPnzkWv17Nnzx7+/Oc/s2nTJjIzM6muriYwMJCioiI++OAD/Pz80Gg0tLe3ExMTQ3V1NWlpaQQGBlJWViYdc7yioiJMJhNtbW2o1eoT7v8uJzvncCspKaG5uZmHHnoIrVY76L62tjZ6enoG1Q86cOAAWVlZHDhw4IT9dTodcGzYuKGhga6uLtra2li2bBkhISFs3boVPz8/rFYre/bs4YorrpAKx9bU1NDU1MRtt91Gf38/7777LjNmzECn06HVatHpdERHR7NkyRIqKioICgrC4XBw5MgROjs7pRgG9h34F4712vj6+hIZGUlsbCyNjY10dnZit9sHPccDx8ybN4+mpia6u7tJTU3FbDZTXV1Neno6jY2NuFwuMjMzCQwMxOFwYDabCQkJISYmBqPRSHNzM/Hx8VRXV5ORkSEN49vtdrq7u5k9ezb79+9HqVQSExNDZWUlTqeTlJQU6XOkra2N+fPns3v3bjZt2sT9998/nC+7IACg8Hg8HrmDEM5Ohw8f5sYbb8THx4esrCzKysqYNGkSZWVlaLVaysvLmTdvnrTC+bp165g0aRJ2u53g4GDKy8vJyckhMzOTL774QqpkHRsby+HDh3G5XBgMBumc2dnZKJVK+vv7KS8vZ+bMmdjtdrq6uggPD0ehUODj40NDQwPnnnsuQUFBlJWVUVZWRlZWlpTkmM1m2trayM3NPWFye3l5Of39/fj7+5OTkwOA2WzmlVde4aqrrhpUbbuzs5O2tjZ8fX2ZNGkSDQ0NfPXVV8yePZsJEybgcrkIDQ3FbDYTEBCASqWivb0dALfbjZ+fH2q1msbGRpKTk4mLi0Ov19Pe3o7JZCItLY2AgAAyMzOlL8OoqCg6OzuxWCykpKRgNpvp7e0lODiYrq4uMjMzMZlMREdHS2UUIiMjMRgMBAUFERQUhFqtxuPxUFlZSWpqKmlpafz3v/8lMjKS9vZ2lEolGRkZlJWVERwcTFhYGBaLhVmzZhEcHIyvry+7d++mpaWFuLg42tvb0Wq10uvmdruZPn068fHxbNq0SXo/DHxBHzhwgHPOOYecnBwMBgOdnZ1otVoqKiqIjo7GZDJhNBoHXfEXFhZGb28v7e3tREVFkZ6eTlNTE6WlpWRlZTFz5kwOHjwoJQ8FBQXs2bOHqqoq8vLySE5Opq6uDoPBQHx8PC0tLfznP//hjjvuYP78+eh0OiZPnsz+/ftJSEigs7OThIQEAgMDSUhIQKfToVQqKSgowMfHhz179uByuU5Ioo43EMtQDTyXZ7rPgKCgIHx8fOju7iYuLg6n04nVasXpdJ70PAPbBqrDDzzfarUag8GA2+0mLi4Of39/XC4XPT09qFQqQkNDsdlsGI1GwsPDaW9vJzY2VuqldTqdBAYGEh0dTXt7O3FxcZjNZpRKJRaLBV9fX2kI3sfHh7i4OBobG7ntttu47bbbuOKKK4b8HArCUIjESZCN1Wrlpptu4tFHHyU5OZmuri6ioqLo6uqS9hn4AAbo7e0lKioKl8uFn58fRqORyMhIqSckPDwcOPaBP/BBbbfbpXNGRkbi4+OD2+3GaDQSFxdHf38/fX19KJVKgoOD6enpwWq1kpSUhL+/PwaDQYorOjoah8NBX18fDofjpL1NXV1duN1ufHx8pPpGfX19LFu2jMcee+yE9bMG6lhFR0fT39/P0aNHCQsLG1JPliCfVatWUVlZycqVK+UORTiFpUuXcs0114jESRh2YqhOkE1zczN9fX3SmnED8xGGOi/h+OTi28sqJCcnD7r97XMeP2R2vIG/bI9v4/jbSqVSGlo7mZMVgwwICMDlcg1KCE/2GPz8/MZtgUxBEISzhajjJMimsrKSpqYmXC6X3KGMuJiYGBISEuQOQxBOauXKlbz00ktyhyEI44LocRJkk5GRQWRk5Ki15/F42Lp1Kw6HA4VCQUREBDabjXnz5p3yUvrh0tLSQn19PZmZmSPazkj573//y+HDh6XbPj4+TJ48eUg1fzweDxUVFTz++ON89NFHwLHK4xdccAEPP/zwiMUsfLeXX36Z+++/n3vvvReHw0FgYCDLli3j1VdflTs0QRizROIkyCY/P5+2tjYsFgsREREj3t5zzz3H+vXrT1jmIz4+fsQXA83IyBg0MXy8+fDDD0lISGDmzJnU1dVx8803D7kHbdOmTdx111384Q9/4L333gNgx44dPP300yMZsjAERUVFGI1G6XL+7u5uNm7cKHNUgjC2icRJkJVKpcLHZ/RGjLVaLQ899NCotTdg0aJF437+klar5f/9v//3vY/74osvyMrKGjRJd/bs2Xz88cfDGZ7wA8ycOVP6v9Vqpa+vz2tqbvn6+p52PqIg/FBijpMgm/LycmbNmkV8fLzcoYy4rVu3SlcHjlcdHR3U19dLPw6H4zuPsdvtbNmyRVqeRRibPvroI7RaLVardcSXIBot0dHR47qXVxi7ROIkyKqjo4O+vr5RaUuv17Nu3TpeffVVdu/ezbvvvss///nPUWn7wIEDUi2l8erXv/41ixYtkn7ef//97zxm79697Ny5k+nTp49ChMIPlZaWxt13341Op2PLli1yhzMs+vr6sFqtcocheCExVCfIJjc3F5VKRX9//6i019XVhcFgQK1W09TURGBgILGxsaPSdnBw8KisizeSHnvsMR588MHvdYw3PO6zwcCyOunp6TzxxBP8+9//PmlpjfHEbDbT1NQ0aDhSEIaDSJwE2ej1ejIyMqTClSMtJyeHhISEHzRP50wNLIcyng1UQv8+pk2bRmFhIe+99x5FRUUjEJUwnHJycqTq7Oeff77c4QjCmCSG6gTZjHQJgLHEZDJJVcK90caNG0+5PtzEiRPZsWPHCcMmq1evHo3QhNNoaGigoqICOLa0yZNPPslDDz3kFUlTSEjIuP9jRRibROIkyKazs5OKigp6enrkDmXEhYaGjkrJhZFUXl7Otm3bWLt2LUajkfLycgCqq6tZvHgxgYGBJz3u+eefJykpiaKiIl5//XXWrl3L/fffz+9+97vRDF84iY8++oj58+ezdOlSNBoNPT093H777XKHNSwGllMShOEmhuoE2QQFBaHT6ejs7CQ1NXXE25s0aRK7d+8e8XZOxuFwYLfbZWl7OGi1WgIDA3n77bex2Wzs37+f7u5uHnvsMT799FMyMzNPWdcpLCyMt956i6amJl5++WVMJhOzZ89mw4YNo/wohG+74YYbuOiii4iOjsZoNP6g4dixym63Yzab5Q5D8EIicRJkEx0dTVBQ0Ki1d+mllzJ37txRa+94FosFk8kkS9vDYaAX4qc//ekJ97300ks8/fTTp63HFRoayqRJk8SyHmNMVFSUNAlcDGsJwtCIxEmQTXBwMP7+/qPa5mhNRP+2mJgYr61XZbFYRJ2mUdTZ2YnZbD5tjSKn00lJSQmZmZmsW7eOH/3oR2zevJlrrrkGODa/LCMjQ7Ye2NEwMHdLEIabSJwE2b300kvjfv7P6XR0dPD666/jdDpHZa06nU6HVqsddHv27Nns2rWLOXPmSNvS0tJwOBykp6dTVlYmzVUa8PXXX7N9+3Y0Gg0AxcXF0n0//elP+fjjjzEYDNhsNuLi4tBqtRQXFxMaGkpaWholJSXS/hqNZtDx37V9rHM6nbjdblnWdJs9ezbbtm3Dz+/UH98ej4f+/n58fX2x2+0EBATgcDhYsWIFvb291NbW4ufnxy9/+UsOHTqEy+U6oTe2ubmZ1atXc+ONN5KUlDTSD2vYjeehcWFsE4mTIJt169ZRWVnJ1q1bufTSS0+6z7eTgO97/1jgdrtJTExkwoQJuN3uEWtnIAmZM2cOs2fPlhKSgWSpqKhIan9g20B8S5YsIS4ujsDAQD7//HMAHnzwQbZv386iRYuYNm2aVMAzISGBwMBA8vPzufbaawf14m3atInS0lLuuusuAJqamnC5XEyYMOF7P56ysjLi4uLGZD2hV155hcrKSlmqbCsUCjwezw8+FpCOP/7K1m9f5erxeHjzzTdRKBTj8grY+vp6uUMQvJTC80N/AwXhDPX19TFjxgw2bNhAcnKy3OGMqMWLF3P33XefsMCwMD6tWrWKyspKVq5cKXcowiksXbqUa665ZtAaiYIwHESPkyCb5uZmUlJSzorK0kqlUlqBXhDGkqamJr755hs8Hg8RERGDhmsFQTiRSJwE2UycOJF58+aN2oTtrq4u2tvb+cMf/gBAREQEd9xxB4mJiSOevIWFhY3JIafh8tZbb9HX1ycN52m1WlJTU1m4cKHMkQmn88UXX7Bs2TIuvfRSdDodVquViIgI5s2bJ3dogjBmiQKYgmzKy8upqqrC4XCMeFt6vZ5LLrmEBQsWEBMTw+WXX87UqVOZPXs2mzZtGvH2Ozs7aW1tHfF25HLnnXfy9ddfc/nll3P55ZcTHR192snLwtiQnp7Ol19+yRtvvEFFRQVXXHEFzzzzjNxhCcKYJj7ZBNkYDAY+/PBDnnjiiREvgLly5UqSk5N55513yM7OlrYXFhaesnCj8P3k5+dz9dVXyx2G8D1kZWUNuq3VannttddkikYQxgeROAmyyc7OHpXhq88//5yVK1eyc+fOQUkTwPTp00e8fThWP8qbh+qE8c/pdPL+++9z0003yR2KIIxpYqhOkE1JSQkBAQGnXONsuLS1teFwOH7QJfHDpb+/n/7+ftnaH2kajYZXXnmFG264gaKiIs4//3w++ugjucMShsjlcnH33XezceNGUlJS5A5nWIz1MiXC+CV6nATZBAcHc9FFF6FWq0e8rRkzZqBSqQCw2Wzce++9Up2jv/zlL1xwwQUj2r7NZsNisYxoG3IqLi7m5ptv5ne/+x16vZ6AgACvLmrqbQ4cOMBrr73Gm2++OeK/C6NFp9NJldIFYTiJHidBNnFxcQQHB49KW/v27ZOKFQYGBvLAAw+wbt060tPTsVqtoxKDN5s6dSpxcXHEx8czZcoUsrOzxdpn48TBgwdZsWIFq1ev5ic/+Ync4QjCmCcSJ0E23d3dOJ3OEW/nmmuuIS4uTlpk18fHh4yMDDIyMggJCRnx9uFYkujNRT5ramrkDkH4AQ4ePMj555/P0qVLue666+QORxDGBZE4CbLJycmhtbV1xIewgoKCeP/993n11Vd5+umn2bFjBwDr16+ntLR0RNsekJ6eTm5u7qi0JYeCggJmz54tdxjC97R582a6urp48803iYuLY8GCBSxatIi1a9fKHZogjFlijpMgG39/f1wu14iu3zbgvPPOw2AwcNlll/HEE08wb948Dh06xKOPPsrll18+4u3v2LGDTZs2ec38kW8777zzpDlkwvhx5513MnXq1BMmUvv6+soUkSCMfSJxEs4a/v7+bNiwQbb2vXlZyP/7v/+TOwThB/Dx8eG8886TOwxBGFfEUJ0gCIIgCMIQiR4nQTbd3d1UVVXR09MjLl0fp4xGI5GRkT/4eJfLRXd3t7Reod1ux+1209fXByCd22g0EhERQV1dHampqdhsNtxuN4GBgdhsNoKCgrDb7Vit1kFXakZGRtLQ0EBISAg+Pj4EBARgsVjo6ekhMjISo9F40rj8/PxISkqioaFh0H4D/9fr9ZhMJqqrq096fGJiIkajkd7eXuk4t9uN1Wo9YWg6ICAAPz8/lErlKeORm06n49ChQ9xwww2EhobyzDPP8MADD6DT6cjPz+ff//43+fn5pKSkUFtbS3FxMZMnTyYlJQWz2Qwc6/HVarWsX7+elJQUYmJi+OKLL/Dx8aGxsZHly5dTUVHBnj17KCgowM/Pj7lz52K1WnnnnXeIj48nMjKS5uZm0tLSKCsro6OjA4CioiJUKhUOhwOFQgEcGx4X5QiEkaDwePP4gTCmHT16lGuvvZbrrruO/v5+LrzwQnQ6Hb29vfj5+RETE4PZbKapqYm4uDiys7Opq6sjODgYk8mERqNhx44d7N69m/vuuw+j0cjBgwepr69HqVSSmJhIcXExU6ZMITExkQ0bNqDRaIBjdWuysrI4ePAgV199NXq9ntraWo4ePYpGo6G3t5fy8nJ6e3vRaDQUFxcTFhZGamoqhw8flrZlZWWRn59PR0eHVBfqqquuwuFw8Mknn0j7bd26lZtvvpmamhomTZpEe3s7XV1d3HvvvezZs4ctW7YQFBREdnY2Bw4cAECtVqPX61m4cCEdHR2EhISwa9cu6ctYpVIxf/58jhw5gtPppKenB5VKRVhYGM3NzdjtdtRqNWq1mpycHD766CPUajURERH09PTgcDiIjY3FarVis9lwOp0EBATg4+MjFev08/Njzpw5fPXVV4SHhxMWFkZHRwcBAQH09vbS1tZGYmIier2e/Px8XC4XJpMJl8sFQEhICG63m56eHqk8gcFgwOl0Eh8fT3NzMxaLRfpSLCsrQ6lU0tXVRXBwMHl5eQCUlpYyadIk1qxZw2WXXUZzczNms5moqCgsFgsJCQno9XoaGhpISkqS3mN5eXm88cYbzJ8/n5ycHI4ePUpdXR2tra1MmjSJsrKyk743VSoVF1xwAbt27UKj0UjFPAeOMRgMOByOUy7Xc+6551JWVoZer5eO6+/vJyEhgS1btgzaNyIigqysLGbOnMlHH31ES0sLU6dOJTIyEl9fX+x2O8XFxQQHB5OZmcnBgwel91VGRgbd3d20t7ej0Wjo7+9n3759aLVaenp68Pf3p7i4mPj4eC666CJqamooLi4mLy+P5uZm8vPz8Xg8KJVK4FhZibq6OqZOnQocS5gG5j8d/3+3283OnTuZM2fOoO1jyYsvvsj999/PFVdcIXcogpcRiZMgm/LycubNm8cf//jH0xbB/KEfzHJ9oA+s/1VVVQVAR0cH999/P/feey8FBQXf6zxVVVUkJCRgtVrp7u4+6T4hISH09vbS1dVFeHg48fHxHDhwAKvVSlZWFpmZmdTW1lJbW0tGRgZJSUmYTCZsNhvZ2dlSEme32wkODsbX11daeDkgIID+/n6sViuJiYkkJCRQWVlJaGgoJpOJCRMm0NTURFVVFYsWLcLpdNLS0iIdHxMTg9vtpqurS1rupq6ujt7eXvLy8qisrCQ1NZWOjg5SU1OprKwkKioKHx+f71yiZuA5Od1agy6Xi/r6ejIyMob8vA/FqlWrqKysZOXKlcN6XmH4LF26lGuuuUYkTsKwE4mTIKvc3Fy++OKLEV/kV26LFy/m7rvv5sILL5Q7FGEYiMRp7BOJkzBSxORwQVZJSUniMnZBEARh3BCTwwVZqdVqAgIC5A5DOENr164lKyuL8vJy4NjcpoULF8oclfBd3n33XZ555hnp9sAcrmeeeYaLL75YxsgEYewSiZMgq6CgoFEptjd37lwuu+wyHnzwQWnbww8/zP79+/nss89GvH1vd+ONN/Lzn/+crq4uAHbt2kVJSQkPPPCAzJEJp7Nw4UJmzpwp3X7hhReora2VrnIUBOFEInESZGWxWKQruEZSXV0dnZ2dg7ZlZmaybt26EW/7bPHcc8/h43Ns9H/37t0sX75cJE5jXGRk5KByEm63m4ULF1JUVCRjVIIwtok5ToKsDh8+POJr1Z2KTqeTpd2zQVhYmNwhCN/T559/jtlsZvXq1XKHIghjmuhxEs4a27dvZ8WKFdLt/fv3j1rbiYmJpKWljVp7cnjyySdRKBRYLBbeeecdMQQ6jvT397NixQqSk5PFnENB+A6ix0mQlZ+fn1Tpd6T5+Pjg5+cn/QwMK42GlpYW6uvrR609OQw8r1FRUVx//fXcdNNNozIMK5y5jRs3sm/fPjG0KghDIHqcBNnY7XZ+/OMfk5KSMirtFRUV8dBDD0m3a2pq2L59+6i0fTZ48MEHpWTUaDTy1VdfsWHDBi699FKZIxO+y+OPP87ixYspLCyUOxRBGPNEj5Mgm9bWVjZu3IjBYJA7FGGY9fX1yTZ3Tfh+zGYzu3fv9rrirGNxGRjBO4jESZBNdHQ0zc3N2Gw2WdoXH6zDq7S0lNLSUnbs2MHPf/5zIiMjmTZtmtxhCd/hiSee4KqrrmL58uVyhzKsxMUfwkgRQ3WCbKxWq7Sm2UibOnXqCfWimpqayM/PH5X2vd306dN58803KSws5LXXXuOuu+5i1qxZgxbcFcam8847T1pfURCE7yYSJ0E2SUlJhIaGjkpb69evp6amZtC2Rx55ZFTaBkZtHpdctm7dKv1/6dKlMkYifF+LFy+WOwRBGFfEUJ0gq8mTJ49azZ+MjIxRaUcQBEHwXiJxEoRRMGfOHK+v4yQIgnA2EImTICs5K4ePpn//+99eX8dJEAThbCASJ0EQBEEQhCESk8MFQRCEMW3Xrl3MmjWL1tZWiouLueqqq6isrESv17N7925mzJiBSqUCYNasWTJHK3g7kTgJ45pOp5PqMXV1ddHW1kZeXt6Qj+3s7CQ3N5fOzs4T6jrt2rWLnp4etFotOp2OsLAwent7aW9vJyoqivT0dJqamtBqtRw4cACTyYTb7ZbW+uru7iYgIIDq6moAGhoa+OabbzAajbS3t5Obm0tRURF79+5ly5YtBAcHk5WVRWpqKpMnT0an01FbW0tKSgoWi4Xo6Gj8/f3p6elh/vz5KBQKdDodBoNBmmDf2tpKX18faWlpFBQUSHWVfv3rX+N0OtmxYwfFxcXExsaycOFC/vnPf570udFqtfj5+dHT08Pu3bvRaDQUFxdL9+fk5BAfH8+BAwcwm83f70WTWVNTEy6XiwkTJpxwn9vtZsuWLYSEhJCRkUFLS4tUsmLgvbZq1Sra29s555xzuPTSS5k1axb79+9n1qxZ6HQ6MjIy6OnpobW1lcrKSlpbW7n99ts5cuQICoWCrVu3MnfuXKZOnco777xDfHw8ZWVl0nM8adIkMjIy6Orqori4GI1Gw549e/jFL37Bnj17AKirqyMgIIB58+Zhs9morKyksbERi8XC/fffz7PPPjvocQ2cOz09HbvdTmtrKwUFBVRVVTF16lT27NnDjBkziIyMJC0tjf/+97+EhoZSU1PDjTfeSENDA4cOHcJoNALwwAMP0N/fzyuvvEJhYSHZ2dmUlpaSmprKtm3bSE1NBZDeMwPtazQawsLCOHr0KEeOHEGj0dDa2kpKSgqlpaX8+Mc/JiIigueeew6Xy4VWq2Xq1KlUVFTQ19fH7NmzqaqqYtOmTcTFxeF2u9mxYwetra3s27cPAH9/f/Lz8+nr6yM7O3tk3kTCWU3h8Xg8cgchnL1uuOEGent7pXlOu3btQqvVMnnyZPbv3098fDwGg4G6ujqSk5PJz8+nsrKS3bt3M23aNCmpOXToEIWFhWRmZlJWVkZzczNpaWknJEM6nQ6Hw4FCoSA8PBybzUZraysxMTFkZmbS2NhIWFgYBoOBc845h/3796NQKPB4PEyZMoV9+/ZJMc2dOxePxyPd/23HJ3WncrJjB9buO92vZnFxMVqt9rT7DJxbo9FIS8scv39SUhL+/v6nnHs18NyeiuBQe1gAACAASURBVFarlb60e3p6OPfccyksLOT5558nKiqK2NhYoqKiBiVcGo2Gvr4+SkpK6O/vZ9asWfj4+BAZGUl3dzctLS2o1WoyMzNpaGigpKSErq4u7rnnHvbu3cv27dvRaDTS+6O2tpacnBwSEhJobGzEbDYTExODUqmUCqsGBgZKa+ZlZmZitVppb2+XHsOAgcc6c+ZMtm/fTmlpKQUFBaSnp1NZWSnFNPD+6O/vl6ptb9y4EX9/f2JiYjCbzSe87gcOHCArK4vg4OBB7X17v6qqKsLDw4mNjT3l6/ld276vgXOc7l8Y/N45ftvp1pocOObb5zrZsQO3FQoFbrd7UDsne7xD+T0ZrXUwhbOLSJwEQRAEQRCGSEwOFwRBEARBGCKROAmCIAiCIAyRSJwEQRAEQRCGSCROgiAIgiAIQyQSJ0EQBEEQhCESiZMgCIIgCMIQicRJEARBEARhiETiJAiCIAiCMEQicRIEQRAEQRgikTgJgiAIgiAMkUicBEEQBEEQhkgkToIgCIIgCEMkEidBEARBEIQhEomTIAiCIAjCEInESRAEQRAEYYhE4iQIgiAIgjBEInESBEEQBEEYIpE4CYIgCIIgDJFInARBEARBEIZIJE6CIAiCIAhDJBInQRAEQRCEIRKJkyAIgiAIwhD9f/buPJ7K9P8f+Mse2SvJpGRUUmHUSLRZIu0ppb1pJ9pTWpX2ZWjatGsdqVRUWqbNUlRGoiiDEFFkOYfDOXj//vA496+To8xW3890PR+PeYz7uq/rut/Xfc7pvF3XdQ6WODEMwzAMwzQSS5wYhmEYhmEaiSVODPM/oLKyEjU1NV87DIZhmG+e/NcO4Gvh8XgQCoVo1qwZV1ZUVAQlJSWoqqp+8Xhyc3MhEom4Y01NTWhqav7tfv39/TF48GC0b98eubm5aNmyJeTl/92H/eLFixCJRHB1df1s3e3bt6Nly5aYOHEiSkpKAOAfGff/JcnJyQgLC8Py5cv/dFuBQIB79+5h9+7d0NfXBxGhpqYGW7duhZaWFldv3759KC0txbJlyyTaL168GCYmJvjpp58gIyMDAAgKCsKrV68wadIkbNq06S+NydPTE2ZmZn+pLcMwzP+yb3bGKTg4GOvWrZMoCwgIQP/+/REbG/vF43F0dET//v0xcOBADBw4ECNHjsSxY8f+dr8REREoKCgAALi4uODt27d/u8/PmTNnDuLi4hpV98GDB4iOjgYAnDlzBmfOnPk3Q/sqbt++jbCwsD/drry8HLNmzYKHhwdmzJiBOXPmwMHBAQoKCsjJyeHq5ebm4sKFC9ixYweeP38u0cepU6cwbdo0vHnzhiuLjIxEaGgo1NXV0a9fP/Tr1w/KysqIi4uDjY0NVyb+z9raGg8ePICqqipXVlpa+tdvCMMwzP+wb3LGycvLC9HR0ejTp49E+fLlyxEdHY24uDhYWVl98bhWr16NiRMnAgD27t0LLy8vODs7Q0dHBwDA5/ORmpoKADAxMYGKigoAID8/H69fvwYAKCgoNDgTsGXLFujp6QEAiAjx8fEAAEVFRZiamnL1UlNTwefzoa2tDUNDwwbjraiowPPnzxETE4Np06Y1eqaOx+PhxYsX0NTUxLNnz9C3b18AwKxZs7g6VVVVSEpKwvnz52FmZoZBgwZBTU2NO19QUICcnBzo6elxYxLHJBQKJWatCgsLsXDhQvB4PCxduhRt27ZFq1atAABv3ryBuro6Vq9eDRkZGcyePRtaWlpYtGgRpk6dCkNDQ7Ru3RoAEBgYiOvXrwMApk2bhsGDBzc4xj/++ANLliyBlpaWRJIDAO/fv8fFixcRHh4OKysrLFmyBLKy9X+HiY+Px6VLlxAbG4tOnToBALp06YJRo0ZJ1PPx8UFaWhr09fVRUFAAExMTifO6urpYu3Yt9u/fDx6Ph8TERABA8+bNMX78eAB1z4HTp0/D2dkZLVu2lGhfXl6Oo0ePok+fPhgxYkSDY2YYhvkWfJMzTmPGjOHerD+krKwMX19fBAcHo6io6IvH1atXL+7nqVOngsfj4dy5cwDqkqYlS5Zg4cKFmDx5ssTM2MyZM7Fw4ULMmzcPlpaWuHbtmtT+165dy804DRs2DD169MDChQvh5eWF3377DWlpaXBycsLs2bMxefJk2NjYwN/fX2pfubm5cHBwwOTJk3H+/HmMGDECGRkZnx3jb7/9BhcXFyxcuBAzZsyQSCp+/fVX/PrrrwDqZv8mTJiA9PR0nD17Fvb29njx4gUA4MCBA+jXrx/mzZuH5cuXw8nJiZvRWbduHSZMmIBZs2Zh9erVXF+vXr1CUVER3Nzc4OfnB6Au4ezTpw+GDx8ORUVFXLt2DTY2NrC1tYWdnR08PDzQp08fEBEqKioQFRWFoqIiZGVlYeLEibh8+bLUMR4/fhz9+/eHnp4eVFRU8OTJE+6cOIaYmBh06dIFqampUhMwHo+HvXv3omfPnlzS9CmzZ8/G/Pnz4e3tzSXXYhEREQgKCkJOTg7U1NQaTKwHDRpUL2kCAJFIxGaYGIZhxOgbdeDAAZo7d67Uc66urhQeHv5F4zExMaGbN29yx8nJyaSqqkq5ubnE5/Np1qxZFBISQkREhYWFZGhoSFOmTCEioqysLCIiEolE5OLiQj4+Plw//fv3p6ioKCIi6tixI2VlZdHGjRtJVlaWoqOjiYhIIBBQfn4+hYSE0LBhw6i4uJjevXtHq1atIicnJ6qsrKwX78qVK2nNmjVUWFhIRETjxo2j8ePHE5/PJz09PVq0aFG9NmVlZWRlZUUHDx4kIqJ3796Rvr4+zZw5k4iI1q9fT+vXryciopcvX1J+fj4REZWUlJCZmRnFxcUREVG7du1oyZIlJBKJqLKykgDQ7t27iYho9OjRpKGhQTNnzqSkpKR6Maxdu5ZUVVWJiCgjI4MA0M6dO4mI6MWLF6Srq0vHjx8ngUBAOTk5pKSkRLW1tRJ98Hg86tGjBzk4ONR/IIlo/Pjx1LVrV8rNzeVi6tGjB/dzv379qLy8nIiIcnJySFFRkdLT0yX6ePjwIQGgkydPSpRnZmbSixcv6I8//iAiovv375OOjg6dPXuWkpOTSUtLi2JjY7n6urq6VFJSQn5+ftSlSxciIvrpp5+oa9euEv2GhITQpEmTpI6HqO7xDQ0NbfA8wzDMt+KbnHH6nA4dOnCzG1+Sm5sbunfvju7du8PJyQnbtm2Dnp4e8vLycO3aNcjJySE0NBT37t1DdXU1166yshLnzp2DlZUVoqKiEBwc/Mnr7Nixg5tRAoAmTZpAIBBg5syZ6NKlC/z8/BAZGQkej4fr16+juLhYor1AIEB0dDSuXbuGe/fuITQ0FG3btsWpU6eQl5fX4HWzs7NRWlrKbRpv3rw5t9z4MT6fj5iYGIwfPx729vZIT08HAFy7dg25ublYuHBhg5vcjY2NsX//fnTp0gUAcOPGDYSGhsLGxgaBgYFcPT09PTg5OaFNmzYS7bt3744mTZqgdevWkJOTA1C3dBgUFIS5c+eiX79+SElJaXCcZ86cwcSJE7klRPF9BoCcnBx0794d165dw6JFi+Dm5obq6mokJCRI9KGpqQkdHR1kZ2dzZaGhoejduzf69u0LBwcHAHVLgk2aNIG9vT06d+4MMzMzxMTE1Itp6dKlkJOT4+4jwzAM89d8k3ucPmfUqFE4efLkF7+up6cn8vLy8OjRI3To0AGzZ8/mzpWWliI0NBQGBgYQCoXo3bs3rKys8OLFC/Tv3x82NjZwd3fH7du3wePxPnst8R4fscrKSu5TbQUFBUhOToaJiQkOHDiA5s2bS9QVCATIzs6Gnp4e4uLioKCggOzsbNy5cwdt27b95HWbNm0KDQ2Nz8YXGBiI5ORkWFlZYfLkydzeL3V1dSgoKDTYrnPnzsjKyuKOIyIiMGzYMBgYGCA4OBhHjx7FwYMHkZqaCl1dXYlN03p6ehKfVPvQ9u3bcffuXezcuROzZ8/GiRMn8Pjx48+OA0C9Za6ePXvC2NgYxsbGmDZtGmRkZOotx7Vv3x4TJkxAcnIyV2Zra4vr16/jwIED2L9/PwAgJiYG+fn5XHKWlZWFdu3a1YtBQUEBCxYswMqVK6GsrNyouBmGYZj6WOLUgPv373/xa5qamsLX1xcREREYNGgQzMzMuI28TZs2xYYNG+olJnv27MGAAQOwf/9+yMjI4MmTJ/U+WSXNxzMcYioqKp9NGhUUFKChoQFPT0+MGTOmkaOr8+7dO7x+/ZrbcC3N+/fvcfr0aezdu5dLmMSJhbq6OhQVFRts+/FGbB6PB5FIhAsXLqBz5864fPky5OTkoKenh9raWom6qqqqDSYVRUVFGDlyJLfxWvy4SGNubv7JmPbs2YPz589/9msXhg0bBnd3d7x79w4tWrSAlpYWtLS0oKOjAxsbGxQXF+PUqVPYtGkTXFxcAACZmZmYMmUKUlNTYWxsLNGfq6srDh06hISEhE9u+mcYhmEaxpbqpAgICMC8efO++HXFMxPOzs44ffo0kpKScOTIEWhqakJFRQWHDx/m6r58+RJr1qwBULdcU1NTg6qqKjx58oRbomrI8ePHcePGDTx8+BAVFRUICAhAdXU1bt68iUOHDnGf0AOAuXPncl9nIKampgZTU1PMmDGD+5RZRkYGtm/fjvfv3zd4XW1tbcjJySEoKAhA3acI//jjj3r1NDU1MWLECFy/fh1paWm4ePEiF1OXLl2gqamJKVOmoKqqCnv27AEAbnmqrKxM6rVfvnyJ+Ph4PHjwALKyslBXV4eMjMyf+k4rPz8/pKSk4NChQ7h161aD9QYOHIjNmzcjMTERJSUlePToEXdu3rx5uH37NrZt28bNDO7evVtqP9999x1KSkowZMgQBAQE4LfffkNCQgJiYmIgFAqxY8cOqKmpwcPDAwYGBjAwMICtrS10dXWlLtepqKhg+vTpKC8vb/SYGYZhGEnfZOJ04MABXL16FXv37oWvry+2bNnCnSsqKkJ8fDyaNm36xeMiIu7nkSNH4scff4S3tzfevHmDmzdvIicnB6qqqlBVVcWYMWPQtWtXWFhY4P79+9DU1ISuri4EAoFEP9IMHDgQy5cvR69evdCiRQusWbMGIpEInTp1gpubG+zs7LjrREVFSd2HtGnTJri6umLYsGFQVVWFiYkJ0tLSAADW1tZSr9uqVSv4+voiKCgIqqqqOHfunNRlO1lZWbRs2RJPnjyBg4MDCgoKJJYWT548iaioKGhra+P8+fMAwH25Y8+ePSX6cnFxwdatWzFt2jTMnz9f4hNlampq+P777z95r8RWr14NHR0d2Nvbo6qqCsuXL29wnMuWLUP79u1haWmJGTNmwMvLizs3cuRIPHz4EImJidDV1YWqqmq9GSmx77//Hn/88QfGjRuH27dvw9nZGV5eXjAzM8PNmzdRUVGBZcuWoUmTJhLtevbsiZ07d6K4uLje/RgxYgRMTU3rlRsbG3/y6xUYhmGYOjL0uXfZ/6DAwEAUFhZyx3379kXv3r0BAAcPHkRgYCAeP37MvRl/qZjGjBkjsceGiBAdHY1evXpBRkaGO7axsYGMjAwX34dLTuIy8f9fvXoFWVlZtGnTBlFRURJ9ffjQf/g9Qh/319B9+LgPcV1xWUPtxP2L60prJ/6ZiCArK4va2lqunkgk4jZtC4VCKCsrY+/evXB3d+di+vh7kcTtP+xT/POHsX54nY+PP+z7c2MU15V2zY/v3afusbT+PuxTWgzS7uOHdT4Xe0PX/7NtGIZh/ou+ycSpIW/evIGTkxPWrVuH4cOHf+1wmAbs3LmT2wCupKSEM2fONOo7pBiGYRjm7/oml+oa8ssvv2DgwIEsafo/ztHREe3bt0dhYSF0dHRY0sQwDMN8MWzGiWEYhmEYppHYjBPDMAzDMEwjscSJYRiGYRimkVjixDAMwzAM00gscWIYhmEYhmkkljgxDMMwDMM0EkucGIZhGIZhGoklTgzDMAzDMI3EEieGYRiGYZhGYokTwzAMwzBMI31ziZNIJEJJSQkqKyshEAgkzgkEAgiFwq8SV2VlJcrKylBSUsLF90/g8/morq4GAPB4PIk/4PtvKSsrw2+//fbJmOLj43H48GFuvOLHQnxcUlICHo8n0U782NXU1EiUCwQCqfUZhmEY5p/2zSVOly9fRqtWreDq6gpHR0d4enpyycTq1asxfvz4egnVl+Dm5obWrVujdevWMDY2xqBBg3Dx4sW/3a+LiwtiY2MBAH369EFeXt7f7vNzfvzxR1y7dk3quWfPnsHExATu7u4QCARYunQpTExMsHnzZgCAlpYW2rRpAxMTE3Tr1g1+fn5cErl8+XJoaWkhICBAInlavXo1tLS0sGzZsn99bAzDMMy37ZtLnCwsLBAREYHw8HAEBgbi/PnzCA8PBwD4+voiLy8Px48f/+JxpaWlwdzcHPfu3UNOTg4GDRqEyZMno7S0lKtTWVmJ9PR0pKeno6qqiisvLi7myj+s/7GjR4+idevW3HFRUZHUNrm5uUhPT0dBQcFn437z5g3S09Px5s0bruz777+XWjc3NxcDBw6EsrIywsPD4enpif379yMvLw9r164FAFhbW2Pt2rXIy8vDw4cPce/ePSxcuJAbJwAsXrwY7969A1A3CyVO0vLz8z8bL8MwDMP8Hd9c4tS2bVv069cPANC5c2e4ubnh6dOnAICmTZtixYoV2LRpE37//fcvHluHDh3QrVs3KCgowMPDA3w+HxEREQCArKwsjB49GsOHD4e9vT2GDRvGxT1o0CAMGzYMQ4cOhZ2dHW7fvi21/+PHj6OwsBAAMGnSJLi6umLIkCEYO3YsIiMjAQCbNm3CyJEjMXz4cPTu3Rv79++X2ldVVRXWrl0rUffRo0cAgMTERKltSkpKkJ2djdmzZ6Nly5ZS66SlpXE/a2pqYvHixdw4nz59ChMTE7Rv3x5v374FUJcsFRYWQltbm6vHMAzDMP+Wby5x+lB+fj72798PPT09rmzgwIGwtLT8Iktan5KbmwsNDQ24ubmhsrISmzdvhoKCApKSkhAbG4uysjL4+/sDAFatWoXExEQ8efIErVq1QnR0tNQ+r169ioqKCly6dAmnTp1CYGAgEhISsGPHDrRr1w6RkZG4du0aLl++jKSkJIwbNw5XrlyRuu9r+/bt4PP5CA0NRVJSEtzd3eHj44PKykrY2Ng0OC4jIyOMHz++wfOampoSx8+fP+ceH2trazx//hz79+/HlClTkJaWhg0bNiAiIgLq6uqwtrb+7H1lGIZhmL/jm06ctm7dCoFAgClTpkiUt2nTBllZWV88nry8PKxfvx4bNmyAo6MjevXqBQDIycnB9evXMWfOHNy5cwdv377FsGHDuHbOzs64d+8enJ2dkZiYiKCgoE9e5/jx42jdujU6dOgAJSUldOrUCdra2li5ciU6deqEpKQkZGRkoLq6GuHh4Xj//r1Eex6Ph/Pnz0NZWRkVFRVISEiAkpISbt26hZycHMTExDR4bU1NTejo6DR4Pi0tDWlpabhz5w78/f2xZ88ebqnu9evX0NHRQceOHSEvL4/+/fvj9u3b6NixI7S1tdG2bdvP3mOGYRiG+Tvkv3YAX8ulS5dw+fJlrF+/HrKykvnjhAkT4OHhgTlz5nzRmJKTkyEjI4P09HS0bdsWYWFh3LmKigocOXIExcXF0NLSQlVVFaytrfHq1StMnToVubm5mDlzJjQ1NRu1zDhhwgSJ45ycHERFRaGyshI5OTlo3bo1Xr9+jYEDB0JJSUmibmVlJV6/fo3Lly+joKCA+7ReaGioxB6qv8La2hp3795FVlYWzMzMEBoaCjMzMwBAu3btoKioCD09PaxcuRIuLi44duwYFBQU0LZt268+S8gwDMP8932TiVNWVhZWrlyJBQsWwN3d/WuHw3F0dMShQ4dw4cIFjBkzBhcvXsTw4cMBAEpKSti6davEsiIA7NmzB/r6+jh16hRatWoFLy+vz16nV69eiIqKkihTU1PDd999B319fZw/f/6T7TU0NGBlZQULCwv4+vo2enyGhoZo0aIFjhw5gqlTp0qtc//+ffz8889YsGBBvXMpKSkoKSkBn8/H0KFDMW7cOLi5uUFOTg6tWrXCkydPGh0LwzAMw/wV39xSXVZWFgYPHozRo0djxowZUut87U3GI0aMQHx8PMaPH4/U1FSoqalBRkam3hKcOM7w8HA0a9YM8fHxSElJ+eQeIwDo1KkTwsLCuPZ8Ph+VlZU4evQokpKSJD6d9vLly3pfz6CoqIi+ffvi8OHDyMnJAVA3Y3Xs2DGUlZU1eF1lZWV069YNW7dulfiepxcvXuDhw4cAgK5duzbY3sjICJqamlBUVARQt+QoJycHgUCA+Pj4BjecMwzDMMw/5ZubcTp48CCSk5PRoUMHBAQEoGnTppCTk8PMmTO5OpcvX4anp+cXjcvCwgIWFhbcsbGxMcaMGQNHR0fcuHEDV69exbp167ilMCMjI8ycOROdO3dGeXk5DA0NIRAIoKenV2+D9ccGDBgADw8P9O7dG2pqalBWVsbJkyfRsWNH2Nvbw8nJCUVFRQDq9ntFRERAWVlZoo+5c+dCQUEBw4cPR0FBASorK2FnZwdnZ+dPXnvVqlVQU1PDvn37uL1lI0aMQJ8+fWBpaQltbe0G21ZWVkJdXZ1LnMTECVn37t0/eW2GYRiG+btkiIi+dhBfkr+/P16/fi1RJi8vjy1btgAATp06halTp+L8+fMYPHjwF4urqqoK8vLykJOT48oqKipw7do1ZGVlYcGCBRCJRNi3bx9at24NMzMz7vuSiouLUVtbCxkZGSgpKUFeXp7bl7R//370798fhoaGKCkpgZqaGuTk5EBE3KZvOTk5iWSrrKwMIpEIQN0SoaqqaoNx83g87lN3GhoakJeXR3FxMZSUlKCiotJgO6FQyH3Tt6amJjfuiooKyMrKokmTJlLbCIVCqfGUl5dLjJthGIZh/g3fXOL0KbW1tfjpp5/QtGlT7Nq1SyKJYRiGYRiG+eb2OH3KggULIBQK4eXlxZImhmEYhmHqYTNODMMwDMMwjcRmnBiGYRiGYRqJJU4MwzAMwzCNxBInhmEYhmGYRmKJE8MwDMMwTCOxxIlhGIZhGKaRWOLEMAzDMAzTSCxxYhiGYRiGaSSWODEMwzAMwzQSS5wYhvlPi4yMxKFDh752GAzD/EewxIn5nxETE/PZOgUFBUhLS/sC0TQsMjISsbGxf7uf7Oxs5OTk/AMRfbuqq6uxfPlylJeXSz3fmOfU15CYmIjr169/7TAYhpHim0ucnj9/jhEjRsDCwgLr1q3DxYsXQUQQCATo0aMHpkyZgpqami8e1969e7Fq1Sr4+vqitLQUf/Yv4axatQpbtmwBAFy4cAGJiYn/RphfzY0bN9CrVy8kJyfXO8fj8bBq1Sr07NkT7dq1g5mZGezt7bF582YAwO+//44hQ4ZARUUFdnZ2WLduHaqrqwHU3ffRo0cjJSVFos89e/agd+/euHLlyp+O9datW4iKivoLo5Q0Y8YMzJgx42/386VoaGh87RDq2bhxI3R1deHl5YUJEybg7Nmz3Lnly5cjMDDwK0bXsMTERFy9evWTdRwdHf+RxG/z5s1Yt27d3+6HYb4V8l87gC8tIyMDxsbG6NWrFwBgypQpOHPmDJycnLB06VKMHTsWAwcOxOjRo79oXLa2trCxscGECRNw/PhxzJkzBzIyMo1uv3XrVu4fPxUVFSgqKv5bof7rBAIBlJWV65UrKCjU++PLRAQfHx9cuHABubm5XHl2djZ++eUXAMDTp0+hr6+PiooK3L9/H/b29nj48CHOnTuH6OhohIaG4tGjR7h16xYMDQ0BADt37sQff/yBmJgYDBo0SGqcIpEIZWVlUFRUhJqa2p8eIwCp4/yU4uJi1NbWQltbW+L5wePxIBQKoa6uDgUFhQbbl5eXo7KyEgCgpqYGRUVFlJaWorq6GkpKSlBVVZXajs/no6qqql4bTU1N7jEJDg4GANTU1IDH40FVVRWlpaUA6pIqefn//8/N+/fvQUSQkZGBtrZ2vXGIfdi/tHhiYmJgY2MDdXV1EBGEQiFUVVVRXFwMTU1NLF68GDIyMkhPT8epU6dgZ2eHoqIiqKurw9fXF1VVVfViAgBZWVloaWlJxCS+ljgmgUCAiooKrrxp06Zo0qRJvVirqqrA5/MB1M1wOTg4oEmTJiguLoacnBw0NTUB1D2fKisroaamhjFjxmDkyJEAgIqKCpSUlGDHjh0AABcXF5iamkIoFKK0tBRFRUVcTMXFxdi8eTMWLFiAJ0+eYMCAAdwYamtrISMjg+PHj8PBwQHt27eHSCTCzZs3IRAIUFpaChcXF9jY2IDH4+HcuXNITU0FAMybNw96enoAgBUrVqCyshJaWloQiURYu3at1OcMw/xXfXMzToMHD8amTZuwaNEiLFq0CEuXLsXDhw8B1P2DFBERgdevX3NvbF9Kp06duN/Yvby8ICMjg+DgYOTk5MDd3R3e3t4Sv10+fvwYixYtwoYNG+Dh4cHNoADA27dvwePxAACVlZXYsGED14e7uzv3W3dVVRUWL17MtUtOTsb27du541u3bnHtjh8/jrKysgbjj46Ohq+vL7y8vHDw4EHU1taipqYG7u7uOHHiBDw9PeHr64tNmzZ98j6cOHECw4YNw7p167BixQpUVFRw54yMjNCsWTOJ+kKhEHv27OHeIMTatGkjMRYxa2trRERE4MqVKzh58iQA4IcffkCHDh24Wafy8nKMHz++3rU+lJ6ejrFjx8Lc3BwODg4IDAxs1Ezl27dvsWbNGri5uWH48OEICgpq1Oxifn4+li5diu7du8PQ0BDBwcHg8Xiorq7Gnj17YGdnB3Nzc8ybN08igfy4D2tra5ibm6Nz584ICQkBAIwYMQLm5ubYunUrKbB3egAAIABJREFUjhw5ws2yVVZWwt3dHb/++iuGDh0KExMTXLp0CQ8ePMDUqVPRs2dP+Pv7c+MWv9Hn5eXBwMAAnp6eMDc3h7GxMdavX8/d28WLF6Nbt24wNzdH+/btsXTpUgBASkoKVy7+79WrV/XGUVZWhp49e8Le3h6PHz/Gd999hwcPHuDKlSuYOHEiwsPDYWxsjPLycmzatAl79+7FwYMHAQBLliyBubk5Hj16hJCQEG5G7+7du2jVqhU8PT0xe/Zs/Pjjj1xMtra2GDZsGCIjI9GhQwfs2rULfD4fbm5umDNnDnJzczFjxgycP39e6n2fNm0aunTpgqNHj+Ls2bNwcHCAUCjEgQMH8MMPPyA/Px9VVVU4d+4cxo0bBwA4ffo0vL29AdTNJpubm8PIyAhGRkY4c+YM5s2bh9jYWEyZMgXm5ubIzMxEXl4ezMzM0Lp1a4SEhGDixIncYzllyhSYmZlh5syZ+PHHH2Fra4vk5GSkpaXh6dOnePbsGYqKiqChoYH3799j0qRJUFRUhI2NDbS1tXHkyBGIRCKEh4cjIyMDHTp0gLe3N968efPZ5y7D/OfQNyo9PZ1SU1PJ2dmZdu/eLXHO1dWVwsPDv3hMBgYG5OXlRUREAoGAANC2bdsoKCiILl68SM2bN6dnz54Rj8ejkSNH0vnz54mI6PTp06Sjo0ObN28mIqKpU6fSqVOniIho4cKFtHz5cgoKCqL4+HjS1tam+fPnExFRVlYWNW/enLv+0aNHycbGhoiIbty4QU5OTlw7V1dXmjt3rtS4IyMjycLCglJSUig0NJQMDQ3J39+fhEIhAaDx48fTuXPnKD8/n3r27ElPnz6V2s+lS5dIV1eXG2PPnj1p0qRJRES0evVqsre3p8rKSok2lZWVpKKiQikpKQ3e16NHj5K7uzt3nJmZSXJycnTmzBkaO3Ysde/enQ4dOkTff/89ZWRkkKurK4WFhVHz5s3Jx8enXn+ZmZk0YsQIOnjwIBERZWRkUMeOHWn//v1crFu3bq3XLioqigwMDGjLli1UUlJCKSkppKKiQmfOnJEat6OjI40dO5bKysrIzMyMdu7cSQKBgBITE2nIkCG0fPly2r17N7Vs2ZIyMzMbHD8RkUgkou7du3PXKioqoitXrhARUWJiIldv9uzZtHDhQiIi4vF4BIA8PT2JiOjRo0eko6NDAQEB9O7dOzpx4gQBoIKCAiIiUlZWJiKi7OxsiZhu3rxJQ4YMISKiw4cPk729PVVVVRERUXR0NOnq6tK9e/dozJgxZGlp+clx1NTU0LZt2+iHH37gym7cuEH5+fkUGhpKampqtHPnToqPjyehUEgrV66k7du305s3b0hdXZ1CQkK4dgsWLKCuXbtSUVEROTo60oQJE6i6upq7J/n5+WRgYEBLlizh2kRERNCoUaPI19eXOnXqxI3jU0xMTCgjI4M71tHRoRMnThCfz6ehQ4eSmZkZhYWFkYqKCh07doyIiI4cOUIeHh5ERKSgoMC9tj/k4OBA0dHR3LG+vj7dunWLO/7tt9+oTZs2RETk4uJCvXr1kohp2rRpRES0adMmWrt2LXdu8uTJZGpqyh3zeDzq2LEjvXz5kvT09CgtLe2zY2aY/7JvbsZJbNy4cTA2NoaZmRnmzJkjca5ly5YIDQ394jG1bNmS+1lGRgYtWrSAiooKJk+eDGNjYwiFQuTn5+POnTu4desWunfvDgAYO3YsRo4cCR0dHYn+8vLycOnSJTg7O2Py5MmwsLCAo6Mjd/7ixYsS9T9sv3z5csjIyMDU1BQyMjLQ1dWVuh+kvLwcixYtwty5c6Gurg4DAwOMHj0aCxYsgEgkAlA3+zNy5Ejw+Xw8e/ZM6m+p4pmYkSNHoqamBsXFxdDS0kJSUhIAwMbGBo8ePZK6WVpRURHGxsafvLeFhYVISEjArl27MGDAAMyYMUNiOXbatGlo1aoVgoKCEBcXh27dujXY1/Pnz5GRkYFu3bohISEBJSUlGDNmDBdrQ3x9fTFjxgx4e3tDQ0MDxsbGcHNz++RSh46ODm7evIkuXbpg7ty5aNKkCUxNTWFqaorAwECoq6ujvLwcDx48+OSM4Llz55CWlsaNWVtbGwMHDgSPx0NNTQ0SEhJw9uxZbnkKqFsa7d69O0xNTQEAurq6aNq0KX744Qc0b978k2PV0NCAgYFBvfL8/HwYGxtzS8k2NjYYOXIktmzZgpYtWyItLQ2LFy9GQkKCxGyjWEVFBZYtW4YVK1ZwZf379+deO0OGDMHcuXNhYWEhsWSpq6uL4cOHS/SVnp6O4uJivHnzBr///jt27drFLQuampqCz+fj1atXsLGx4doMGDAAT58+xa5du1BaWgo3Nzfs27cPr1+/RmFhYb144+LikJOTgzlz5sDV1RWurq7Q1tbG3Llz0bRpU/zyyy8oKSnBzJkzMXz4cEyaNKleHy1btsTJkydx8OBBJCQkoLi4uMH7HhAQwF1n586dDdb7nKysLK4fJycnvHjxAgDQuXNnDB06FKNHj0ZCQoLUPYcM81/3ze1xEgsJCUFSUhLi4+Oxbds2LFmyhDs3bdo0bhnnS/pwf4mMjAyaN28OCwsLAHVvYkpKStx5R0dHtGnThjtOTU2Fra3tn7retGnT4Ofnxx1//Cmex48fo2fPntDS0mpwz5RQKERVVRWmTJkCFxcXPH78GG/evIGlpSW3B0e8v0NeXh7KysqIjo6WSOCAugQsJSUF79+/R3JyMnR1dVFSUoKWLVvijz/+AAB89913UFdX/1NjFIuMjERubi569eoFFxcXiU3XrVu3BgB06dIFO3bsgKenJ7efQxo+n4+MjAx4enpKlIuXqj7l/v37EsedOnXCzZs3G6yfmpqKPn36NHje3Nwc48aNw+bNmxESEgITExNs2LBBaj/SPH78GC4uLnBxcYG3tzfu3r3L7dOpqamRWPbLz89HZmYmd9ylS5dGPx5xcXF49eoVUlNTpbYxMzPDsmXLUFpaimvXrmHHjh2YPn06vL290b59e4m6cnJyUFFRadR1P2XatGlIS0tDbm4ut++rsUaNGgVvb28cPHgQnp6e2Lp1KyZMmCDxegLqXtNKSkoYNWqUxC9G4qSubdu2sLS0xNmzZ+Hk5CT1Wrdu3UJaWhquX7+OwMBA1NbWYt++fVLrjh07VuL+/tk9dGKzZ89G7969Jcr09PRw48YN3LhxA35+fpg9ezaysrKQn5//l67BMP+rvtnEqU2bNmjTpg2ePn2KVatWSSROQP03uC8hPT0dJiYmAIDa2lqkpKTg999/h5WVFZSVlT/5qaWYmJgG/+H9UG5uLnR1dQGgXnLYp08fxMfH49GjR3jx4gUGDx4MLy8vNG/eHAoKCsjKyqrXn4yMDGRlZbFo0SL4+vqisLAQeXl5+PHHH7nESfxbPJ/PR0FBAbcx/0Pt2rWDnJwcgoKCpCaA4n0VH8+qifv19/fHggULpI45OjoaLi4u2Lt3r9Tz4vjEb0bu7u5S64kZGRlBX18f4eHhEhub/yojI6M/3cbGxgb79u1D165dsX//fvB4PLx79w7Tp0/HihUr6iVP0mZ/gLp7Y21tjcOHDwOoS4bEiaq8vHyD7YC6WbwPN3J/Sm1tLYgIubm5Em/sIpEI8vLyyM/Ph7q6OoKCglBcXIwnT55gxowZ0NPTk5iRk5OTQ8uWLf+Rr2nIzMyErq4ujIyMpP5ioKysLJHsAHVfd1FeXg4DAwMYGhpi48aNcHR0xO7duxEZGVmvj+LiYggEAtja2qJdu3b1zkdFRSE+Ph4ODg44duwYhg0bVu913qFDB3To0AGDBg1CRkYGvv/+exQUFEgd06NHj7Bt2zapG+oba/z48di4cSMWLVqEFi1aSJzLzMyEo6MjHB0dUVZWhg4dOgCoew0+ePAAFhYWn9wbyDD/Bd/sUt2HPv6N9uXLl18ljg+XBOTk5NCjRw+p542MjCASiZCQkMCdk5GRQc+ePSXq6+npcZ8SExMKhUhPT0d1dTU30wLUfepGvJm6Q4cOWLlyJV6/fg1TU1O0b98eBgYGaNWqVb2Y5eTkICcnh3v37qGmpgYGBgawtrbmZlF69uzJvSk1b94c7du3b/D+tm/fHkFBQRJlJSUl3JvEmzdv6i1HycrKwsHBAWfOnEF2djZX/u7dO+67lKQlah/6MCHct28f2rZtKxHTxzQ0NFBYWFgvUfvc82bx4sV4/vy5RL2goCBMmTKlwTbt27dHq1atEB0dLfHGfPToUUyZMgV79+7FrVu3oKamBkNDQxCRxCfFxMaNGweRSMTNKpaWliIyMlLi3mRnZ0vMZFRXVyMjI6PB2Dp27NjgpwmLiookvuJB/FURy5YtQ3h4OH7//XcAwJMnTxAWFoaxY8fi8ePHiIyMhJaWFkxMTFBbWyvxWAB1yczSpUuxd+9e3L59GyUlJdi9e7fEa0GasrIyPH36VOLeZ2VlITExEQoKCujSpQtWrlyJ1NRUiEQirF69Gnp6eggKCoK/vz9iYmJQUFCAn3/+GaampjAwMEBwcDDCw8PRu3dviESierECdc+9tm3bYu3atdysVmhoKNasWYOCggJMnDgRmzZtwtGjR6GgoMBtCP/QkSNHkJaWhpcvX+Lly5dwcnLiZiGjo6MRFhYGHo+HNWvWYPfu3QgNDUVKSgrCwsLg6+sLQPrzWMzIyAhHjhxBWFgYMjMz0blzZ7x48QJjxozh+hkyZAiys7Ph4uKCefPm4eLFi1wCBQCvXr2Co6Mj4uPjP/k4MMx/wTeXOP3yyy8ICwsDALx48ULqx2nPnTuH6dOnf9G4Xr16hevXr+Ply5cIDg5GbW0tSkpKuPNCoRA3btwAULdkVVtbi/nz5yM4OBj79u1DTU2NRH0xExMTTJ48GQEBAVi+fDl+//13aGhoQFZWlpvdevToEYKDg7mZAA0NDdja2kIkEmH9+vW4ePEinj59ijVr1tTrX01NDVu3bkVmZiYCAwPx9OlTWFtbY8mSJVxM3333HTeGiooK7uPXH1uzZg3i4+OxYMECBAcHY+zYsejfvz/y8vIAAA8fPpRIjoC6JY+zZ8/C0tISXl5eCA4Oxo4dO9CjR49/ZJ+atHv6/fffY8GCBYiKisLPP/8MLy8v9O7dG/fu3ftkXwMGDICdnR0GDRqEPXv2wNraGkQENze3T16/Z8+emDt3LoYPH46pU6fCy8sLqampsLOzg62tLTw8PNC1a1fMnj0bXbt2lfqdPPLy8vD19cXgwYPRtWtXdO/eHUFBQdDR0cHz58/h6uoKLy8viZkXJSUl2NvbS/Sjr68PfX19AHXJkbQkDQCaNWuGTp061Svv378/1q9fD29vb8yePRs+Pj5Yu3Yt+vfvj5iYGEydOhWrV6/G9OnTYWlpWe/TkgAwYcIEGBsbY9u2bQgPD0d0dDS3vCh+TovJysqiY8eO3GzWpUuX4OTkhIcPH0JFRQX9+/eHjo4OQkNDwefz4eHhge7du+Pt27dcf7q6uli8eDG8vb3x5MkTbNy4Ef3798f169excuVKTJw4kduLKM2FCxfQpEkTbNmyBT/88ANCQkLQtm1b7N27F4qKihg9ejRat26Nbdu2gYhQUFCAdu3acfvsnJ2dMWfOHOzYsQP+/v5YtWoVtLS0sGLFCly9ehV79uxBWVkZpk2bhv379+P8+fPw9PTE6dOnuX1XnTt3lngsnZ2duU8Ojho1CtbW1jh9+jTS0tKgp6eH2NhYWFtbY9++fTh9+jTmzZuHli1bYtGiRSgoKEBwcDCmT5+O48ePA6j7N2PMmDHcbDbD/JfJEP3Jb1r8H3fr1i2EhYVBR0cHpaWlsLS0xKhRoyTqjB49GpMmTcLgwYO/WFw7duzAs2fPuOPAwEAsW7YMgwcPhp2dHQoKCrB+/Xp4eHigU6dO4PP5WLNmDQwNDeHm5obLly+jffv2sLa2xtGjR9GpUydYWVlBIBBg8+bNyMnJQdeuXbFt2za0a9cOd+/ehZycHFJSUnDw4EGoqKigS5cuyMrKgo+PD4D/PwuVl5cHJycnWFhY1JvBEnv9+jUSEhJw9+5dFBcXY926ddDT08PixYsxcOBAODg4AAB27doFW1tbdOnSRWo/RUVFyMvLg7+/P5o1a4Z58+ahdevWqKiowLlz5+Dm5tbgfqvU1FRs3boVQN1yg42NDZo0aYKysjJUVVXVW3YA6pZeRCKRxOyb2JkzZ9C3b98G3ww+3hvTtm1byMvLc7MQ0hLE8vJyiT0hGhoaDW60zsvLg4yMDFq1agUej8e9mQN1m7vFG7kLCgq4fWR6enoN7mupqamR+Hi/eLO3eBxqampQUlKCSCTiYiosLISioiLU1dVRWVmJ3Nxc7hrimAwMDCAnJ4eMjAwYGhqiuroaeXl53B68iooKlJaWSsxYFhcX4/379xLjAOpmFYkIysrKEuXSiD9AIMbn86GoqCjx/Pi4TnFxMSorK6GpqQllZeV659+/f4/S0tJ6y2rFxcVQVFSEvLy8xF5D8Ubtz8UqlpGRgXbt2kFGRgbv3r2DQCCQ2Kv4qbGqqamhoqJCYqmzvLy8XkxEhJKSkkbHxDDMn/PNJU6fExISgtOnT2P9+vUNvrn/LxsxYgQMDAzg7+//tUNhGIZhmP8539xS3aecO3cOp06dwtq1a/+TSRNQt1z0+PFj7qsCGIZhGIZpPDbj9AHxZllZ2f9uPin+Rm95efk/9SddGIZhGIZhiRPDMAzDMEyj/XenVhiGYRiGYf5hLHFiGIZhGIZpJJY4MQzDMAzDNBJLnBiGYRiGYRqJJU4MwzAMwzCNxBInhmEYhmGYRmKJE8MwDMMwTCOxxIlhGIZh/gdcuXIFkZGRXzuMr8rKyor7g/cAEBsbi2PHjuHYsWN4/fr1F4mBJU7fmGfPnkEgEHztMJiv4MGDB0hKSvraYTAfKSwslPjjy/+LioqKsGrVKixZsgT79u3D9evXv3ZI/+dcvHgRdnZ2ja6fm5sLfX19XLlyBQCQk5ODbdu2QUdHp8E2mZmZ0NfXR7du3WBlZQVbW1sUFhY2WN/b2xu2trYSZc7OztDX1+f+27lzJ/6vfE/28+fP0aNHD+6PxhcXF2PYsGGIjY3F5cuXYW5ujvv37//7gRDDuXnzJh0+fPhrhyFVWFgYbd++nbZv306hoaF/qY9ff/2VrKysiMfj/cPR/T1PnjwhPz+/rx1GPbGxsaSjo0O1tbV/q5+pU6dSRETEPxTV5508eZLevn0rUVZVVUU6OjokEAj+kWvY2tpSSkrKZ+vFxsbS8OHD/5Frfin37t2jffv2/aN9Hjt2jLS1tamsrKzeuYkTJ5Ktre2f7nP+/Pn0+vXrfyK8v4zP59PKlSvJ0NCQtm3bRoWFhRQXF0cuLi704sWLrxobEVF8fDxpa2vTgwcPvloMVVVVtH37drK0tCQTE5NGt8vKyiItLS168uQJERHdvn1b6vPnQ9XV1VRYWEglJSVUWlpKc+bMoYkTJzZY/8yZMxQdHS1RZmFhQffv36fCwkKKiIggeXl5GjVqVKPj/jfdvXuXIiMjqaqqioiIampq6P3790REJBKJaMWKFTRo0KB/PY5vdsaJiBAbGwt1dXVs2rQJAFBRUYGTJ0/i+fPnXy0uAwMD8Hg87risrAwDBgxAcHAwhg0bBhMTE5w9exYWFhYoKir6U33fvXsXp06dgqqq6j8d9t8SGxv7p8fyJTx8+BBv376VKCOiRv32Ja5HRODz+X/rjyp/7nq1tbUSdXg8HmpqaiTqyMjI4Ndff0WTJk2k9v9xHw1dR1yvrKwMtbW1n+2nurpa4vksjbjdx/19eF7c5+fqfq7/j9t9WC6+xpUrV+Dr68u1+1wfn7seEWHcuHEIDg6W+tqrrKxEZWVlg22lqa2tRVJSEl69eiVxb7Zv3w4/Pz9s3rxZIs4P+/uw/OHDh/Dz88O9e/ckyvPz8+Hn5wc/Pz/k5OQ0GAePx8Pu3bsREhKCxYsXo1mzZrC0tMS6deuk/jtKRLh8+TL27t2LqKgoifsbFRWFXbt2wc/PDwKB4JNjr62tRXJyMsLCwrj2GzduhJ+fH37++WeubXV1Nd6/fw+hUMhdS3wfxNevqKjA+vXrsWDBAkyYMAEvX77k2iclJWHUqFFQUVGBnZ0dt0wWEhICFRUVqKioYNKkScjIyJAaqzi2kpISCIXCBuuIRUVFcf1OnToVJSUlXN85OTkoKysDAOzatQs6OjpQUVGBuro6NzY5OTk0a9YMGhoaUFdXx4ABA7jnljSurq5Sn8+amppo1qwZBgwYgFWrVuHy5cvcOBYsWAAVFRV06NAB7u7u3L1KSEhAREQERowYgTt37ki9DydOnICzszPatWsHFRUVeHt7o6KiAkSEAQMGIC4uDgDw7t07mJubc0tyKSkp0NfXR//+/bF69Wo4OzujtrYWsrKy0NLSAgDIy8vD2dkZqampyM3N/ey9/ju+2cRp7969WLZsGWpra1FdXQ0AGDp0KCZPnozVq1cjNTX1q8T16tUrqKmpcceXLl1CdnY2Tp06BSMjIzg7O2Pt2rXo2LEjFi9eDAAQCoUSL8rKykpUVFRwx9XV1di5cye0tLRw8OBBlJeXS712TU0NUlJS4OPjg6NHj3IvOKFQiKqqKq7e7du3JRIBgUCA3bt3w8fHB9nZ2dwLsaysDD4+PvDx8UFMTIzEdRITE+Hj44PTp0/j1q1b3DlxohESEgIfHx88fvyYe3ykuXr1KneNBw8ecP0nJyfDx8cHx48fB5/P52ISjyU0NBQ+Pj6Ii4trsH9LS0soKCgAqHszXbFiBRwdHeHg4PDJJS+BQIBFixbB1tYWgwcPxtOnT7lz1dXVEuO9c+cObt++DaDuH3Q+n4+qqirw+XxUV1cjPT0dgwcPxoYNG7BixQoUFxdL3KuzZ8/C0tISo0ePxsqVK/Hq1StMmjQJLVq0AACUl5fD19cXzZo1w88//4wNGzZwj112djYCAwNx6dIlqKurw8PDA6WlpVLHVFBQgM6dO0NdXR0zZsxAbm6uxHNOKBTC3t4e6urqGDZsmMSYG/Lbb7/Bx8cHS5Ysgbq6Or777jscPHgQAJCWloYVK1bgxo0bcHZ2xvv373Ht2jX4+vpydXfs2IHq6mpkZmbi4MGDEsni+vXrce3aNYhEIlhZWUFdXR3q6urQ19fnYnv+/Dl0dXWhpKQEdXV19O3bF0KhEA8ePMDbt2/h5OQEKysr5OTkYNKkSVwflpaWuHjxotQxvX79Gh4eHlxddXV1pKSkcMkTn8//5D2JiIhAjx49sGXLFri6uqJnz55Sl9Z3796Nu3fv4tixY9i4cSMKCwuRkJCALVu2gIhQVVUFHR0d7rH29/dH27ZtMWHCBIwaNQoikQjR0dG4cuUK5OXlsWnTJqioqCA2NhYAsH37dsjLy+P169cwMDDAzp07pcZ7584dDBo0CN26dZMo79y5M4YPHy5RJhQK0aNHDxw6dAilpaWIjo6Gh4cHAGD+/Pk4f/48+Hw+5OXloampKXXcNTU1sLW1RceOHTF48GBcuXIFIpEIw4cPR2RkJOTl5VFUVITJkydDJBLh/v37kJWVRXBwMPeYtWvXDvPnz8fmzZuxfft2AMCgQYNgZ2eH6dOnY8iQIfD19cWzZ89gZ2eHdu3a4e3bt9iwYQP3h9E1NDRw9epVXL16FU+ePIGtrS2ys7Ol3iMlJSX4+fnVu0cfi4mJgZ2dHW7cuIGKigocOXIE2traMDY2BgAcOXKESwjk5OSQkZGBiooKLF26FNra2vX6S09Px7Fjx9CvX78Gr/ny5UvMmjWrXnl0dDT3c21tLRwdHfH+/Xu0bdsWxsbGqKiowO3bt3Hnzh1s2bIFQF0yN3ToUPB4PMjLy9frc8uWLdiwYQMOHjzIvWa3b9/OJcnXr1/nnn/v3r1DYmIiamtrkZ6eDgcHB6xZswZCoRB37tyBg4MDNmzYINF/VlYWZs2ahcOHD+O777775L3+2/6Naaz/6+7du0fDhw8nPp9Ptra2tG7dOonzrq6uFB4e/lViW7FiBbecwufzydramuLj4+vVS0xMJGtrayouLqatW7eSnZ0dd+7w4cPUuXNn7nj+/Pm0aNEiCggIoEmTJtGsWbO4qU6x/Px8Gjt2LHXu3JkCAgLI3d2dZs2aRUREO3fupKVLl3J13d3d6ejRo0REVFxcTHZ2dmRtbU0BAQH0008/UV5eHoWHh5O6ujoFBATQ+vXrSUdHhx4/fkxERFeuXCFjY2MKCAiggIAAcnV1pfnz5xMR0du3b6lFixbcOVNTUwoJCZF6ry5dukQaGhpc3enTpxMR0dq1a8nMzIwrb9OmDR05coQ75+joSAEBAeTr60tKSkp04cIFqf2Xl5eTsrIy1dbW0saNG+nQoUMUFxdH+/bto1atWtHLly+ltlu0aBENGTKEYmJiKCAggMzNzSksLIyIiObOnUuurq5cXUdHR1q5ciX3GAAgKysratGiBd2+fVui32nTppG5uTlVVlZSbW0tHTp0iFxdXen58+d0+fJlGjFiBGVmZpKlpSU9ffqUiIh0dXVp06ZNVF1dTSUlJaSsrEy//PILERE9ePCAjIyM6OLFi0RE5OHhIXWpurq6mjZt2kTLli0jIqLMzExq3bo17dmzh7tPffv25ZZDrl+/TmvXriWBQEDR0dFkb28v9T6tWbOGlJSUuKWIn376iWbOnElVVVWUnJxMzZs3p8WLF1NAQABVVFSQsrIy17a0tJR69+5Nx48fp/v375OCggLdvXuXiIhiYmJIW1ubbt++TWFhYTRlyhSu3aRJk6h79+5UVVVFnp6eZGNjQzdu3CAiokePHlF1dTV5e3uTrq4uEdVN/69cuZL69evH9REcHExmZmZUUFBQb0zjx4+n8+fP1ys/cOAAKSsrS10md3V1pUWLFkm9R61ataLVq1dEIfMKAAAYC0lEQVRLPefg4FBvmYWIqLa2ljIzMwkABQYGEhHRhAkTqF27dhQaGkpxcXF06tQpatKkCV2+fJkbZ79+/bjHlIhIKBRSQUEBWVhY0OjRo6XG4OXlRTNmzJB67mN8Pp+UlZUpLi5OoryqqorMzMwoOTmZK3NycqKbN2/W6yMvL4/at29PP/74I7ccvWfPHnJ3d6fa2lri8/lUXV1N48aNo1OnTtHDhw/JwMCAsrOzuT7atGlDzs7OJBQKJfouLS2lgoICsrOzozVr1tCFCxcIAD18+LDeEll1dTXxeDxKSkqi0aNHEwC6f//+J8c/bdq0Ty7V+fv7k4ODA7c14NChQ2RoaMi9H/Tt21fi3r17946WLFlCnp6epKGhIdHXs2fPaOrUqbR48eJ6y/ZEdUtcJ06cICsrK/L29pY4Z2FhQVFRUVRQUEDLli0jDQ0NqqmpodOnT1Pr1q0l6t64cYOMjY2poKCAxowZQ3PmzGlwfEOGDJF4TOPi4qhp06ZUWFhINTU1BIACAgK4+AFQREQEPX/+nHR0dGjz5s107do1OnPmDFlbW0u8b588eZKcnZ0pIyOjwev/k+qnhf9xcXFxOHDgAI4dO4amTZtyMwofatGiBe7cuYPBgwd/8fiCg4OxbNkyAEBVVRWeP38udXo/KysLDx8+5GaPevXqxZ2LiYmBhoYGgLqp+KSkJAQHB6N58+YAgObNm8Pe3h6urq5cm+LiYty+fRuRkZHo0KFDo+OdOHEiNDQ0JGZRxOXXr1+HlZUVAKBVq1b4+eefsX79enh5eWHp0qWYOXMmAKBJkybcDJ+vry98fHwwb948AICRkRE2btwIU1NTdOzYUeIaEyZMwLp167i6QN109v9r597jYs73B46/KialCGlMjyIhkks5OEuPlFvC2s1lyyWOSxGS60YWlUud2ljZx0OxHGGx6dh9YLViHXb2ZFGbaxtOCGm2KV005dLF748efR+Nmdr2t3v2nPPweT4eHg8z3+tMM9/v+/N+vz/zj3/8g1OnTkmjDjc3Nz777DNmzZoFwPDhw6Vt7ty50+hru3r1qjRiDwkJQaVSYWxsjFqtRqVS8eTJE3r06KG1TVlZGZ9++ilXrlyhf//+DB06VKtZMT09HRsbG63HgwcPlh4bGRnh6elJREQEUJe9Ki8vp6qqim7durF3716qq6upra3F39+f+Ph4HB0dcXR0ZPz48dJ+SktLWbt2LQMGDGDFihUYGRnRtm1bkpOTWbp0KUuWLAHAxsaG999/H6jLCKSnpzN37lyt15ScnMzt27cJCwsD6srJcrlc+ox5e3tTVVVFp06dKC4uxtzcnLCwMBwdHbG2tm70/YW60Xj//v2BuizH8OHDUSqVvHz5kqKiIvz9/enZsydnzpzRynK2adOGhIQEZs2aRUZGBmPGjGH79u24u7uTlZWFn58fw4cPJzw8HC8vL6n52sbGhgMHDpCWlkZ6ejq7d++mX79+AAwcOFDn/LKzs9m8ebM0qgbw9fVl1apV/PWvf2Xbtm0628THx3Pr1i1mzZqFQqHA2NgYZ2dn+vbtq3ckPnbsWCnTVllZyYULF1Cr1aSlpWFra9vk+9dQeXk5KSkpPH/+nDlz5mgtmzBhAoaGhkycOBGAnJwcunTpQmFhIYmJiaSlpWmVy3ft2kVKSgqXL1+mpKSE7t27N3rchp/fpshkMtzc3AgLC8PGxoZp06YxYsQILly4wPXr19m9ezdVVVVUVVXx448/kpWVJTUB11MoFNja2rJq1Sopqwpw6NAh5HI5aWlpDBgwgNTUVHx8fACwsrLSWhdg//790rU/KSmJCxcukJOTw7/+9S/UajVGRkbMnj2bgQMHMnToUBwcHFi5ciWTJk3C3NycuLg4UlJSyMnJ0crG/1aDBg2SslqWlpaUlpaSk5NDnz59pHU0Gg0REREcOHAAExMTPvzwQ539rFmzhuDgYJ33r96TJ09YtGgRV65ckTJaDfn6+rJ8+XLy8/M5c+YMhoaGpKen692Xg4MDVlZWpKenM3bs2Ga/1uzs7EarHw09fPgQjUZDTU2NlNXr0aMH48aNk9Y5c+YMc+bMoWvXrs0+/m/xVpXqbty4wdatW1m7di15eXn89NNP1NbWolartS4aISEhPHz48A89t7KyMhYvXsz+/fu1AqXa2lq9Ketu3brRpk0bacbEm6WD+pvzunXryM7O5vTp08ydO5elS5eiUCi4fv261voKhYIhQ4awcuVK1q9fz08//dTsOvHixYv1Ph8XF8emTZtYunQpH3/8Mffv36eoqIh27drh5+end5udO3dy5MgRgoKCCAkJ4ejRo1y/fh2VSqV3/aCgIK3HxcXFvHjxQitVe+PGDRISEqT+gObKycmRyj+JiYn07NkTNzc3QkJCaN26td5tEhISeP36tRQM/JIOHTpoPba1tZWCJoBjx44xfPhwJk+ezMGDBzEyMgLqZmK1bt260Vk6eXl5JCUlYW9vj0wmk553cXFp9Fwam33TqlUr1Gq11kVp6NCh0k392rVrWFpaEhUVRUBAAMuWLcPHxwdzc/MmZ/S8qX379nTp0kXvsps3b+r0bTUUFBTEs2fPUKvVJCcnS+/rd999R0hICOvWrZNKLYGBgTg6Ojb7vKDp962hhQsXYmZmRkxMDF27dsXb25u8vDxyc3P58ccf9fa61d8MNBoNiYmJTJ06lfLyctzd3X/VLEgfHx82bNgAwJ49e7SW3bp1S6cP586dO1RWVtKiRQvc3d0JCQlh1KhR7Nq1i61bt+Li4sK1a9cIDw/n0qVL/PzzzzrH7NChA8ePH2/W+bVs2ZKtW7cyePBg0tLSmDNnjtZnff78+Xh6euLu7s7Zs2el4F6fa9euaT0OCAggLCyMbdu2ERYWxqVLl6QBgUql0nvuUDc4rV//7Nmz5ObmSqUtOzs70tPTSU5OxtTUlNDQUEaMGMHBgwdZvXo1ixYtIjc3l6+++qpZr//XcnFxQaPR6FyHT548SWxsLJ9//jm5ubkEBATobGtjY9PoNQrqrrO+vr56gyaoK6OvWrWK/fv3S4Hxm9eqN7333nu/9JJ+1fWgofbt2zN+/HgCAgIICAggMTFRq/Q5ZcoUrRaXf7e3KuMkl8uprKyUMg9Q1wRZP8Wx/mZeUlJCfn7+H3ZeJSUlTJ8+nffff1+nDm5sbKy3XltcXIyZmZkUDGRlZWktb/hYLpfTo0cP5HI51tbWxMTE8ODBA63127Zty1dffcUXX3xBbGwsR44coXv37s2+KOozadIkvL29uXv3LuPGjaNLly6Ul5ejVqtRq9XY2dnp3c7FxYV58+bRoUMHKisrWbBggU5m54/Qrl07DA0NefnyJR9//DHLly/H3d0de3t7XF1d9W4jl8t/1TEajiTflJWVxbJly4iLi2PGjBkA0sj5+PHjvHr1igcPHujNEJaVldGpU6cmj/1mMJqVlaV3G2dnZ548ecKdO3ekrN/FixeRyWQMGzYMgJEjRxIcHKyz7d/+9rcmz6Hh8SorKyktLdW7nlwul0bi+s7f2dmZ3Nxc3NzcKC4u5osvvpCWBQcHs3LlSr37ValUUsapKQ2P9fTpU169eqX3vXJ1dcXV1ZW0tDR++OEHwsLCKCsrw8LCQgp631Q/aLt06RKLFy8mKSlJypYcOXLkF8+tXlZWFpmZmVhaWlJRUYG/v7+0rD47+Ca5XM7kyZO1nouMjMTExITw8HAAbt++jY2Njd7M94IFC9i9ezdPnz7VurGWlJTQqlUrTExMpOdqamro2LEjERERREREcPjwYWJiYvDz86Nbt26oVCqtvqjMzEwGDBig97wbBoEdO3Zkx44dBAcHS98nW1tb6X01NzdvdEJMTU0Nd+7ckbKpFRUVlJWV0bp1a0pKSigpKcHb2xtvb2+io6PZsGEDWVlZWFhYSJ/9xgZ1/x/Hjh0jKCgIa2trVCoVMpms0YCg/rVmZmbqLFu/fj0KhaLR43Tq1Emr+b6iooLq6upGPycAgYGBbN68mSNHjjBt2jQ0Gg379u2TvgdlZWWYmpo2ecwlS5bg7OyMlZUVn3/+uc7yv//97wQGBrJr1y7peRcXF7p06cKaNWuIj4/HxMSE6upqLl68KFVN+vTp0+S5/97eqoyTXC7n66+/JiMjQ/rXoUMHAgMDtTIgcrm8ydT07y0/P18qNzSc9WRmZsaUKVOkm2ZDP/zwAyNGjMDNza3JfS9YsABLS0t69+7N6NGjcXJywtjYuNGRxtSpU8nIyCA2NpbU1FSdALKqqkrnuYY3qYacnZ1p2bIlTk5OjBkzhl69emFmZkZ5ebnWD5U1bKr09fXF1NQUFxcXOnfuTK9evXByctJbUgXtJkaA1q1b06pVK65evaq1//Hjx//q2YT37t2jpqaG2tpaVCoVixYtYvTo0dy8eZOCggK928yePRtbW1uSk5OBulJbYWGh1jqFhYVS8/7jx48bPf7Tp09p27atNAJWqVRSxiIgIAArKyutALjh++jq6kpSUhLff/892dnZQF1j+u7du7VmkTbUVDDo4eEhjRaLi4spLy+XSnorVqzg1KlTWr9FVFlZSWFh4S+OMGUymfR5On/+PMbGxnqzO35+fshkMmmSwYsXL9ixY4eU7ZTL5SxcuJC7d++yZMkSqVl22rRpOsHHxYsXyc3NxdbWlpiYGO7evQvU/S1qa2u1ymN2dnZ88MEH7Nu3j0ePHlFYWEhycjKGhoZ6m2r37t2LUqnE0dGRuXPnSvuysLDQW6aDuht/+/btsbCwoHfv3tJn98SJE1o/9PcmW1tbrl27pjVrMTY2FqVSqTUZo/61NeTh4cHAgQO5fPkyDx484PvvvycsLIyTJ09ia2uLRqNBqVRy4MABjh8/3mjg1K5dO7Zs2YKPjw9KpRKlUsm+ffsYPnw4hw4d0lr3xYsXbNq0SVqvsrJSmnW5cOFCZs6cyYkTJ6Tln376aaOvveEN+oMPPsDe3p6RI0cSHR3NN998w+jRo0lNTcXBwQGFQkFqaqp0zIaMjY0JDg4mOjqajRs34u3tLX1fbt26xbJly4iKiiIqKooLFy4QEhKCn58fLVu25KOPPmLSpEnEx8c3ep5Q913w8vLi9OnTPHz4kDlz5lBcXKyznre3N7W1tbi7u+Pl5cWKFSvQaDQ611sPDw8GDRrE9OnT8ff31ztRISQkRG9AVS8gIICkpCS8vLzw8vLC29u7ybYFqAtA58+fT0JCAl5eXkycOJGWLVtqlbGbEhMTw5AhQ/jLX/6Cj4+P1vXK0NCQs2fPYmBggKenJ6mpqVIgLpfLOXbsGCYmJowaNYqZM2cyffp0rb9leHi4TrvIv9NblXHS5/79+9jb22s9FxsbK/Xm/BHkcjn9+vXju+++o6qqivv372NoaCj1ugwZMoQpU6ZII8jExETS09OlC1N95ub06dNUVFRw6tQpqZ9p8uTJfPLJJyxYsEAr02ZqaiqNmKCujrxq1SrmzZsH1PX3jBw5Uhq1HDp0iGHDhnH+/HkyMzOlkWFQUBCLFi2SZjLcuHGDOXPmsH79esaMGcPOnTuBur4rMzMzVq9eja+vL9u2bUOj0XDr1i1iY2Ol2TVeXl5s3rwZKysrXFxcSEtLIysri+DgYJ3ZId988w2nTp3iwoULvPPOO1y9epXQ0FDeffddNmzYwOLFi8nOziYqKopNmzY1Gnw1ZvDgwbRo0QKZTMaYMWOYMGECW7Zs4csvv2xyOz8/PzZs2IC5uTmlpaXShRhg+fLlzJs3j6CgIGQyGRYWFlrbqlQqzpw5g6enJ/3796dv3768++67ODg48PLlS8rKyrh37x79+vVj/fr1JCUlcfjwYczNzbGysmLfvn0AHDx4kJiYGPz9/QkKCmLQoEEolUqqq6sJDAwE6sq9bx5bX4+AiYkJ1tbWrFu3jpqaGrp3765V+lizZg2XLl3Cw8ODzp07A3W9GmvWrMHV1bXJm392djZ+fn5UV1cjk8nYtGlToyWBsLAwNm7cyPPnzzEwMMDBwUGrl6dbt24oFAqpdw7A39+fgoICZsyYwePHjzE3N+edd95h/fr1JCQksGzZMry8vLCxscHBwYH4+HgCAwP55z//ybBhw+jatSt79uwhMjKS9957j1evXuHs7ExoaKjeEW5RURFr166lY8eOWFpaEhERgZ2dHc+ePdMqmb7J3t6egQMHsnfvXtatW8e0adMYPXo048aNa3QQt3TpUlavXk1eXh4rV64kNDSU48ePc+zYMWbOnMmYMWOkkr2zs7NWxsva2poTJ05w+PBhtmzZQl5eHiNHjuRPf/oTo0aNQqPREBkZyYwZM9i6dWujAwVjY2N8fX0xNzcnMjJS+jvs2LFDp2esVatWTJgwQVpv0qRJKJVK2rdvj42NDYMGDWLnzp2UlpYyZMgQKeP1poEDB+qUqFNSUoiKiuL8+fOcP3+eKVOmMGrUKNq2bcsnn3xCXFwcnp6eAAwbNky6FhgZGREbG8vo0aM5fPgw0dHRFBQUUFNTg5ubG6amplIfztSpU6Xvh1KpJD8/n9atW9OjRw+uXbuGk5OT3vOVyWSsXbtW77KG7OzsOHfunDQA6dy5M48ePZLKynFxcdjb22Nubs6JEye4e/cutra2dOnSRadMtmbNmib7C01NTfn222+lMqC5ubk0YPnss8/0lsxlMhlxcXFUVlaSkZFBmzZtcHZ2lpZHRkY2OWvUwsKCAwcOcOPGDSwtLUlPT2f27NnS8j59+vDtt99y6dIlevXqRVFRkZTNksvlfPnll1y5cgUrKytev36tda1au3at3pmF/y4Gr1838mMZb4ng4GD69u2rVSf28fFh1qxZf2hz+NOnT6VpwlZWVri7u0sNzA8ePGDPnj1kZ2ejVqsxMDBg//79WgHf9u3bUSqVeHp6UlBQgKOjo5Tuv337NnFxcdLFb/ny5QwdOlTrQvr8+XPOnTsnlVYcHByYP38+9vb2FBQUcPToUc6fP4+npycGBgb06NFDunilpqZKqdXAwEA8PDyQyWRkZGRIF0kLCwtWrlyJk5MT5eXlfPTRR+Tl5dGnTx9sbW0xMjKSMhiPHz8mMTGRq1evIpfLmTdvHj179tSbsr58+TLR0dGYmZnx4Ycf0rdvXzQaDampqRw6dAhHR0cmTpxIv379kMlkHD16lBYtWjBp0iQAtm3bhqurK3/+85919l1QUMCSJUtISkoiLy+PxMREbGxs6NevH/v372fLli16zyk/P1/qR1IoFKhUKtzd3Rk0aBBQNw1+69atLF++nOjoaMaOHcv06dOpqqpi586d+Pn5ScFDWVkZoaGhODg4MGPGDB4+fIhCoZDKt4cPH6ZDhw5UVFQwZMgQFAoF2dnZGBsbS5+Pn3/+Wcrwde7cWfrl4fr+ifryW1FRERUVFY32GeXk5FBaWkrPnj15/PgxXbt21SrFZGRkSP+3s7PD0tJSGjHrKyeGh4dz5coVEhISUKvV2NvbSxe/hk2xDbOwNTU1XL16FZlMplNii4qK4tatWzqZDqgbGBQWFmJqakrv3r21lt28eZOXL1/i7OwsZYUePXqEWq3GxMREuiHevn0bjUajc05vunfvHiUlJbRp00brdV+/fp0+ffrolOwqKyt59eqVFEQXFxfz7NmzRkvZv0SlUjVZphGE/waZmZm4u7uTm5v7i/1T/23e+sCpqKiI169fS70jX3/9NRs3buTcuXN/aLMZ1PUFvHz5ssnelHPnzrF9+3ZOnjz5B56ZIPz+6gOnlJSU37yv/Px8XF1dCQgIaNboXhCE/yylUsnu3buJj4//w++1v9VbX6qrL2lBXb9MZGQk/v7+/5E/ZP0voDbF2tqamzdvMnbsWLp16ybNuBKE/0XNmY7cHCUlJVhaWmql/gVB+O81bNgwrXaR/yVvfcapoaNHj5Kdnc3q1aubTMX/p5WUlLBz507UajURERE6fTKC8L+goqICAwODJmfi/Nr9NTUFWxAE4fcgAidBEARBEIRmeqt+jkAQBEEQBOG3EIGTIAiCIAhCM4nASRAEQRAEoZlE4CQIgiAIgtBMInASBEEQBEFoJhE4CYIgCIIgNJMInARBEARBEJpJBE6CIAiCIAjNJAInQRAEQRCEZhKBkyAIgiAIQjOJwEkQBEEQBKGZROAkCIIgCILQTCJwEgRBEARBaCYROAmCIAiCIDSTCJwEQRAEQRCaSQROgiAIgiAIzfR/3bQZbFy5xAEAAAAASUVORK5CYII=;" vertex="1" parent="1">
                    <mxGeometry x="40" y="40" width="460" height="281.46" as="geometry"/>
                </mxCell>
                <mxCell id="3" value="                1        2        3        4        5        6        7        8        9        10        11        12                    &#10;" style="shape=table;startSize=30;container=1;collapsible=0;childLayout=tableLayout;fixedRows=1;rowLines=0;fontStyle=1;align=left;pointerEvents=1;fillColor=#080808;" vertex="1" parent="1">
                    <mxGeometry x="42" y="400" width="460" height="270" as="geometry"/>
                </mxCell>
                <mxCell id="4" value="" style="shape=partialRectangle;html=1;whiteSpace=wrap;collapsible=0;dropTarget=0;pointerEvents=1;fillColor=none;top=0;left=0;bottom=1;right=0;points=[[0,0.5],[1,0.5]];portConstraint=eastwest;" vertex="1" parent="3">
                    <mxGeometry y="30" width="460" height="30" as="geometry"/>
                </mxCell>
                <mxCell id="5" value="A" style="shape=partialRectangle;html=1;whiteSpace=wrap;connectable=0;fillColor=none;top=0;left=0;bottom=0;right=0;overflow=hidden;pointerEvents=1;" vertex="1" parent="4">
                    <mxGeometry width="35" height="30" as="geometry">
                        <mxRectangle width="35" height="30" as="alternateBounds"/>
                    </mxGeometry>
                </mxCell>
                <mxCell id="6" value="" style="shape=partialRectangle;html=1;whiteSpace=wrap;connectable=0;top=0;left=0;bottom=0;right=0;align=left;spacingLeft=6;overflow=hidden;pointerEvents=1;fillColor=#080808;" vertex="1" parent="4">
                    <mxGeometry x="35" width="425" height="30" as="geometry">
                        <mxRectangle width="425" height="30" as="alternateBounds"/>
                    </mxGeometry>
                </mxCell>
                <mxCell id="7" value="" style="shape=partialRectangle;html=1;whiteSpace=wrap;collapsible=0;dropTarget=0;pointerEvents=1;fillColor=none;top=0;left=0;bottom=0;right=0;points=[[0,0.5],[1,0.5]];portConstraint=eastwest;" vertex="1" parent="3">
                    <mxGeometry y="60" width="460" height="30" as="geometry"/>
                </mxCell>
                <mxCell id="8" value="B" style="shape=partialRectangle;html=1;whiteSpace=wrap;connectable=0;fillColor=none;top=0;left=0;bottom=0;right=0;overflow=hidden;pointerEvents=1;" vertex="1" parent="7">
                    <mxGeometry width="35" height="30" as="geometry">
                        <mxRectangle width="35" height="30" as="alternateBounds"/>
                    </mxGeometry>
                </mxCell>
                <mxCell id="9" value="" style="shape=partialRectangle;html=1;whiteSpace=wrap;connectable=0;fillColor=none;top=0;left=0;bottom=0;right=0;align=left;spacingLeft=6;overflow=hidden;pointerEvents=1;" vertex="1" parent="7">
                    <mxGeometry x="35" width="425" height="30" as="geometry">
                        <mxRectangle width="425" height="30" as="alternateBounds"/>
                    </mxGeometry>
                </mxCell>
                <mxCell id="10" value="" style="shape=partialRectangle;html=1;whiteSpace=wrap;collapsible=0;dropTarget=0;pointerEvents=1;fillColor=none;top=0;left=0;bottom=0;right=0;points=[[0,0.5],[1,0.5]];portConstraint=eastwest;" vertex="1" parent="3">
                    <mxGeometry y="90" width="460" height="30" as="geometry"/>
                </mxCell>
                <mxCell id="11" value="C" style="shape=partialRectangle;html=1;whiteSpace=wrap;connectable=0;fillColor=none;top=0;left=0;bottom=0;right=0;overflow=hidden;pointerEvents=1;" vertex="1" parent="10">
                    <mxGeometry width="35" height="30" as="geometry">
                        <mxRectangle width="35" height="30" as="alternateBounds"/>
                    </mxGeometry>
                </mxCell>
                <mxCell id="12" value="" style="shape=partialRectangle;html=1;whiteSpace=wrap;connectable=0;fillColor=none;top=0;left=0;bottom=0;right=0;align=left;spacingLeft=6;overflow=hidden;pointerEvents=1;" vertex="1" parent="10">
                    <mxGeometry x="35" width="425" height="30" as="geometry">
                        <mxRectangle width="425" height="30" as="alternateBounds"/>
                    </mxGeometry>
                </mxCell>
                <mxCell id="13" value="D" style="shape=partialRectangle;html=1;whiteSpace=wrap;connectable=0;fillColor=none;top=0;left=0;bottom=0;right=0;overflow=hidden;pointerEvents=1;" vertex="1" parent="1">
                    <mxGeometry x="42" y="520" width="40" height="30" as="geometry">
                        <mxRectangle width="40" height="30" as="alternateBounds"/>
                    </mxGeometry>
                </mxCell>
                <mxCell id="25" value="E" style="shape=partialRectangle;html=1;whiteSpace=wrap;connectable=0;fillColor=none;top=0;left=0;bottom=0;right=0;overflow=hidden;pointerEvents=1;" vertex="1" parent="1">
                    <mxGeometry x="42" y="550" width="40" height="30" as="geometry">
                        <mxRectangle width="40" height="30" as="alternateBounds"/>
                    </mxGeometry>
                </mxCell>
                <mxCell id="27" value="F" style="shape=partialRectangle;html=1;whiteSpace=wrap;connectable=0;fillColor=none;top=0;left=0;bottom=0;right=0;overflow=hidden;pointerEvents=1;" vertex="1" parent="1">
                    <mxGeometry x="42" y="580" width="40" height="30" as="geometry">
                        <mxRectangle width="40" height="30" as="alternateBounds"/>
                    </mxGeometry>
                </mxCell>
                <mxCell id="29" value="G" style="shape=partialRectangle;html=1;whiteSpace=wrap;connectable=0;fillColor=none;top=0;left=0;bottom=0;right=0;overflow=hidden;pointerEvents=1;" vertex="1" parent="1">
                    <mxGeometry x="42" y="610" width="40" height="30" as="geometry">
                        <mxRectangle width="40" height="30" as="alternateBounds"/>
                    </mxGeometry>
                </mxCell>
                <mxCell id="31" value="H" style="shape=partialRectangle;html=1;whiteSpace=wrap;connectable=0;fillColor=none;top=0;left=0;bottom=0;right=0;overflow=hidden;pointerEvents=1;" vertex="1" parent="1">
                    <mxGeometry x="42" y="640" width="40" height="30" as="geometry">
                        <mxRectangle width="40" height="30" as="alternateBounds"/>
                    </mxGeometry>
                </mxCell>
                <mxCell id="33" value="" style="line;strokeWidth=4;direction=south;html=1;perimeter=backbonePerimeter;points=[];outlineConnect=0;" vertex="1" parent="1">
                    <mxGeometry x="73" y="431" width="10" height="240" as="geometry"/>
                </mxCell>
                <mxCell id="35" value="3" style="rounded=0;whiteSpace=wrap;html=1;fillColor=#6a00ff;fontColor=#ffffff;strokeColor=#3700CC;" vertex="1" parent="1">
                    <mxGeometry x="87" y="460" width="95" height="30" as="geometry"/>
                </mxCell>
                <mxCell id="36" value="1" style="rounded=0;whiteSpace=wrap;html=1;fillColor=#1ba1e2;fontColor=#ffffff;strokeColor=#006EAF;" vertex="1" parent="1">
                    <mxGeometry x="87" y="430" width="35" height="30" as="geometry"/>
                </mxCell>
                <mxCell id="37" value="2" style="rounded=0;whiteSpace=wrap;html=1;fillColor=#d80073;fontColor=#ffffff;strokeColor=#A50040;" vertex="1" parent="1">
                    <mxGeometry x="182" y="490" width="70" height="30" as="geometry"/>
                </mxCell>
                <mxCell id="38" value="3" style="rounded=0;whiteSpace=wrap;html=1;fillColor=#fa6800;fontColor=#000000;strokeColor=#C73500;" vertex="1" parent="1">
                    <mxGeometry x="122" y="520" width="100" height="30" as="geometry"/>
                </mxCell>
                <mxCell id="39" value="1" style="rounded=0;whiteSpace=wrap;html=1;fillColor=#60a917;fontColor=#ffffff;strokeColor=#2D7600;" vertex="1" parent="1">
                    <mxGeometry x="222" y="550" width="30" height="30" as="geometry"/>
                </mxCell>
                <mxCell id="40" value="3" style="rounded=0;whiteSpace=wrap;html=1;fillColor=#a20025;fontColor=#ffffff;strokeColor=#6F0000;" vertex="1" parent="1">
                    <mxGeometry x="252" y="580" width="90" height="30" as="geometry"/>
                </mxCell>
                <mxCell id="41" value="2" style="rounded=0;whiteSpace=wrap;html=1;fillColor=#76608a;fontColor=#ffffff;strokeColor=#432D57;" vertex="1" parent="1">
                    <mxGeometry x="342" y="610" width="80" height="30" as="geometry"/>
                </mxCell>
                <mxCell id="42" value="7" style="rounded=0;whiteSpace=wrap;html=1;fillColor=#6d8764;fontColor=#ffffff;strokeColor=#3A5431;" vertex="1" parent="1">
                    <mxGeometry x="182" y="640" width="240" height="30" as="geometry"/>
                </mxCell>
                <mxCell id="43" value="" style="endArrow=none;dashed=1;html=1;exitX=1;exitY=0.75;exitDx=0;exitDy=0;entryX=0.826;entryY=0.004;entryDx=0;entryDy=0;entryPerimeter=0;" edge="1" parent="1" source="42" target="3">
                    <mxGeometry width="50" height="50" relative="1" as="geometry">
                        <mxPoint x="352" y="570" as="sourcePoint"/>
                        <mxPoint x="352" y="540" as="targetPoint"/>
                    </mxGeometry>
                </mxCell>
                <mxCell id="44" value="1) GANTT" style="text;html=1;align=center;verticalAlign=middle;resizable=0;points=[];autosize=1;strokeColor=none;fillColor=none;" vertex="1" parent="1">
                    <mxGeometry x="41" y="379" width="70" height="20" as="geometry"/>
                </mxCell>
                <mxCell id="45" value="2) CPM" style="text;html=1;align=center;verticalAlign=middle;resizable=0;points=[];autosize=1;strokeColor=none;fillColor=none;fontSize=15;" vertex="1" parent="1">
                    <mxGeometry x="35" y="700" width="70" height="20" as="geometry"/>
                </mxCell>
                <mxCell id="59" style="edgeStyle=none;html=1;entryX=-0.1;entryY=0.85;entryDx=0;entryDy=0;fontSize=15;entryPerimeter=0;" edge="1" parent="1" source="47" target="67">
                    <mxGeometry relative="1" as="geometry"/>
                </mxCell>
                <mxCell id="64" style="edgeStyle=none;html=1;entryX=-0.013;entryY=0.325;entryDx=0;entryDy=0;entryPerimeter=0;fontSize=15;fontStyle=0;strokeWidth=3;" edge="1" parent="1" source="47" target="62">
                    <mxGeometry relative="1" as="geometry"/>
                </mxCell>
                <mxCell id="47" value="" style="shape=lineEllipse;perimeter=ellipsePerimeter;whiteSpace=wrap;html=1;backgroundOutline=1;fillColor=#2A2A2A;" vertex="1" parent="1">
                    <mxGeometry x="37" y="880" width="78" height="80" as="geometry"/>
                </mxCell>
                <mxCell id="48" value="" style="line;strokeWidth=2;direction=south;html=1;fillColor=#2A2A2A;" vertex="1" parent="1">
                    <mxGeometry x="71" y="920" width="10" height="40" as="geometry"/>
                </mxCell>
                <mxCell id="100" style="edgeStyle=none;html=1;entryX=0.244;entryY=0.025;entryDx=0;entryDy=0;fontSize=15;entryPerimeter=0;exitX=1;exitY=1;exitDx=0;exitDy=0;" edge="1" parent="1" source="52" target="80">
                    <mxGeometry relative="1" as="geometry"/>
                </mxCell>
                <mxCell id="52" value="" style="shape=lineEllipse;perimeter=ellipsePerimeter;whiteSpace=wrap;html=1;backgroundOutline=1;fillColor=#2A2A2A;" vertex="1" parent="1">
                    <mxGeometry x="160" y="720" width="78" height="80" as="geometry"/>
                </mxCell>
                <mxCell id="53" value="" style="line;strokeWidth=2;direction=south;html=1;fillColor=#2A2A2A;" vertex="1" parent="1">
                    <mxGeometry x="194" y="760" width="10" height="40" as="geometry"/>
                </mxCell>
                <mxCell id="54" value="I" style="text;html=1;align=center;verticalAlign=middle;resizable=0;points=[];autosize=1;strokeColor=none;fillColor=none;fontSize=15;" vertex="1" parent="1">
                    <mxGeometry x="66" y="893" width="20" height="20" as="geometry"/>
                </mxCell>
                <mxCell id="55" value="0" style="text;html=1;align=center;verticalAlign=middle;resizable=0;points=[];autosize=1;strokeColor=none;fillColor=none;fontSize=15;" vertex="1" parent="1">
                    <mxGeometry x="51" y="930" width="20" height="20" as="geometry"/>
                </mxCell>
                <mxCell id="56" value="0" style="text;html=1;align=center;verticalAlign=middle;resizable=0;points=[];autosize=1;strokeColor=none;fillColor=none;fontSize=15;" vertex="1" parent="1">
                    <mxGeometry x="81" y="930" width="20" height="20" as="geometry"/>
                </mxCell>
                <mxCell id="95" style="edgeStyle=none;html=1;entryX=0;entryY=1;entryDx=0;entryDy=0;fontSize=15;" edge="1" parent="1" source="62" target="80">
                    <mxGeometry relative="1" as="geometry"/>
                </mxCell>
                <mxCell id="109" style="edgeStyle=none;html=1;fontSize=15;" edge="1" parent="1" source="62" target="75">
                    <mxGeometry relative="1" as="geometry"/>
                </mxCell>
                <mxCell id="116" style="edgeStyle=none;curved=1;html=1;entryX=0.256;entryY=0.95;entryDx=0;entryDy=0;entryPerimeter=0;fontSize=15;strokeWidth=3;shadow=0;" edge="1" parent="1" source="62" target="72">
                    <mxGeometry relative="1" as="geometry">
                        <Array as="points">
                            <mxPoint x="530" y="1090"/>
                        </Array>
                    </mxGeometry>
                </mxCell>
                <mxCell id="62" value="" style="shape=lineEllipse;perimeter=ellipsePerimeter;whiteSpace=wrap;html=1;backgroundOutline=1;fillColor=#2A2A2A;" vertex="1" parent="1">
                    <mxGeometry x="162" y="1040" width="78" height="80" as="geometry"/>
                </mxCell>
                <mxCell id="63" value="" style="line;strokeWidth=2;direction=south;html=1;fillColor=#2A2A2A;" vertex="1" parent="1">
                    <mxGeometry x="196" y="1080" width="10" height="40" as="geometry"/>
                </mxCell>
                <mxCell id="65" value="A, 1" style="text;html=1;align=center;verticalAlign=middle;resizable=0;points=[];autosize=1;strokeColor=none;fillColor=none;fontSize=15;rotation=-58;" vertex="1" parent="1">
                    <mxGeometry x="92" y="816" width="40" height="20" as="geometry"/>
                </mxCell>
                <mxCell id="66" value="B, 3&lt;br&gt;" style="text;html=1;align=center;verticalAlign=middle;resizable=0;points=[];autosize=1;strokeColor=none;fillColor=none;fontSize=15;rotation=60;" vertex="1" parent="1">
                    <mxGeometry x="117" y="991" width="40" height="20" as="geometry"/>
                </mxCell>
                <mxCell id="67" value="1" style="text;html=1;align=center;verticalAlign=middle;resizable=0;points=[];autosize=1;strokeColor=none;fillColor=none;fontSize=15;" vertex="1" parent="1">
                    <mxGeometry x="170" y="770" width="20" height="20" as="geometry"/>
                </mxCell>
                <mxCell id="68" value="3" style="text;html=1;align=center;verticalAlign=middle;resizable=0;points=[];autosize=1;strokeColor=none;fillColor=none;fontSize=15;" vertex="1" parent="1">
                    <mxGeometry x="176" y="1090" width="20" height="20" as="geometry"/>
                </mxCell>
                <mxCell id="72" value="" style="shape=lineEllipse;perimeter=ellipsePerimeter;whiteSpace=wrap;html=1;backgroundOutline=1;fillColor=#2A2A2A;" vertex="1" parent="1">
                    <mxGeometry x="680" y="880" width="78" height="80" as="geometry"/>
                </mxCell>
                <mxCell id="73" value="" style="line;strokeWidth=2;direction=south;html=1;fillColor=#2A2A2A;" vertex="1" parent="1">
                    <mxGeometry x="714" y="920" width="10" height="40" as="geometry"/>
                </mxCell>
                <mxCell id="74" value="10" style="text;html=1;align=center;verticalAlign=middle;resizable=0;points=[];autosize=1;strokeColor=none;fillColor=none;fontSize=15;" vertex="1" parent="1">
                    <mxGeometry x="686" y="927" width="30" height="20" as="geometry"/>
                </mxCell>
                <mxCell id="114" style="edgeStyle=none;curved=1;html=1;entryX=0;entryY=0.5;entryDx=0;entryDy=0;fontSize=15;" edge="1" parent="1" source="75" target="105">
                    <mxGeometry relative="1" as="geometry"/>
                </mxCell>
                <mxCell id="75" value="" style="shape=lineEllipse;perimeter=ellipsePerimeter;whiteSpace=wrap;html=1;backgroundOutline=1;fillColor=#2A2A2A;" vertex="1" parent="1">
                    <mxGeometry x="390" y="880" width="78" height="80" as="geometry"/>
                </mxCell>
                <mxCell id="76" value="" style="line;strokeWidth=2;direction=south;html=1;fillColor=#2A2A2A;" vertex="1" parent="1">
                    <mxGeometry x="424" y="920" width="10" height="40" as="geometry"/>
                </mxCell>
                <mxCell id="77" value="5" style="text;html=1;align=center;verticalAlign=middle;resizable=0;points=[];autosize=1;strokeColor=none;fillColor=none;fontSize=15;" vertex="1" parent="1">
                    <mxGeometry x="403" y="928" width="20" height="20" as="geometry"/>
                </mxCell>
                <mxCell id="79" value="H, 7" style="text;html=1;align=center;verticalAlign=middle;resizable=0;points=[];autosize=1;strokeColor=none;fillColor=none;fontSize=15;rotation=-15;" vertex="1" parent="1">
                    <mxGeometry x="468" y="1040" width="40" height="20" as="geometry"/>
                </mxCell>
                <mxCell id="102" style="edgeStyle=none;html=1;entryX=0;entryY=0.5;entryDx=0;entryDy=0;fontSize=15;" edge="1" parent="1" source="80" target="75">
                    <mxGeometry relative="1" as="geometry"/>
                </mxCell>
                <mxCell id="80" value="" style="shape=lineEllipse;perimeter=ellipsePerimeter;whiteSpace=wrap;html=1;backgroundOutline=1;fillColor=default;" vertex="1" parent="1">
                    <mxGeometry x="238" y="880" width="78" height="80" as="geometry"/>
                </mxCell>
                <mxCell id="81" value="" style="line;strokeWidth=2;direction=south;html=1;fillColor=#2A2A2A;" vertex="1" parent="1">
                    <mxGeometry x="272" y="920" width="10" height="40" as="geometry"/>
                </mxCell>
                <mxCell id="82" value="4" style="text;html=1;align=center;verticalAlign=middle;resizable=0;points=[];autosize=1;strokeColor=none;fillColor=none;fontSize=15;" vertex="1" parent="1">
                    <mxGeometry x="248" y="930" width="20" height="20" as="geometry"/>
                </mxCell>
                <mxCell id="83" value="I" style="text;html=1;align=center;verticalAlign=middle;resizable=0;points=[];autosize=1;strokeColor=none;fillColor=none;fontSize=15;" vertex="1" parent="1">
                    <mxGeometry x="189" y="730" width="20" height="20" as="geometry"/>
                </mxCell>
                <mxCell id="84" value="I" style="text;html=1;align=center;verticalAlign=middle;resizable=0;points=[];autosize=1;strokeColor=none;fillColor=none;fontSize=15;" vertex="1" parent="1">
                    <mxGeometry x="419" y="896" width="20" height="20" as="geometry"/>
                </mxCell>
                <mxCell id="85" value="I" style="text;html=1;align=center;verticalAlign=middle;resizable=0;points=[];autosize=1;strokeColor=none;fillColor=none;fontSize=15;" vertex="1" parent="1">
                    <mxGeometry x="191" y="1050" width="20" height="20" as="geometry"/>
                </mxCell>
                <mxCell id="87" value="I" style="text;html=1;align=center;verticalAlign=middle;resizable=0;points=[];autosize=1;strokeColor=none;fillColor=none;fontSize=15;" vertex="1" parent="1">
                    <mxGeometry x="267" y="893" width="20" height="20" as="geometry"/>
                </mxCell>
                <mxCell id="88" value="I" style="text;html=1;align=center;verticalAlign=middle;resizable=0;points=[];autosize=1;strokeColor=none;fillColor=none;fontSize=15;" vertex="1" parent="1">
                    <mxGeometry x="709" y="896" width="20" height="20" as="geometry"/>
                </mxCell>
                <mxCell id="98" value="Y&lt;sub&gt;1&lt;/sub&gt;, 0" style="text;html=1;align=center;verticalAlign=middle;resizable=0;points=[];autosize=1;strokeColor=none;fillColor=none;fontSize=15;rotation=-68;" vertex="1" parent="1">
                    <mxGeometry x="194" y="980" width="50" height="30" as="geometry"/>
                </mxCell>
                <mxCell id="101" value="D, 3" style="text;html=1;align=center;verticalAlign=middle;resizable=0;points=[];autosize=1;strokeColor=none;fillColor=none;fontSize=15;rotation=75;" vertex="1" parent="1">
                    <mxGeometry x="234" y="821" width="40" height="20" as="geometry"/>
                </mxCell>
                <mxCell id="103" value="E, 1" style="text;html=1;align=center;verticalAlign=middle;resizable=0;points=[];autosize=1;strokeColor=none;fillColor=none;fontSize=15;" vertex="1" parent="1">
                    <mxGeometry x="330" y="900" width="40" height="20" as="geometry"/>
                </mxCell>
                <mxCell id="115" style="edgeStyle=none;curved=1;html=1;fontSize=15;entryX=0;entryY=0.5;entryDx=0;entryDy=0;" edge="1" parent="1" source="105" target="72">
                    <mxGeometry relative="1" as="geometry">
                        <mxPoint x="670" y="920" as="targetPoint"/>
                    </mxGeometry>
                </mxCell>
                <mxCell id="105" value="" style="shape=lineEllipse;perimeter=ellipsePerimeter;whiteSpace=wrap;html=1;backgroundOutline=1;fillColor=#2A2A2A;" vertex="1" parent="1">
                    <mxGeometry x="536" y="880" width="78" height="80" as="geometry"/>
                </mxCell>
                <mxCell id="106" value="" style="line;strokeWidth=2;direction=south;html=1;fillColor=#2A2A2A;" vertex="1" parent="1">
                    <mxGeometry x="570" y="920" width="10" height="40" as="geometry"/>
                </mxCell>
                <mxCell id="107" value="8" style="text;html=1;align=center;verticalAlign=middle;resizable=0;points=[];autosize=1;strokeColor=none;fillColor=none;fontSize=15;" vertex="1" parent="1">
                    <mxGeometry x="550" y="928" width="20" height="20" as="geometry"/>
                </mxCell>
                <mxCell id="108" value="I" style="text;html=1;align=center;verticalAlign=middle;resizable=0;points=[];autosize=1;strokeColor=none;fillColor=none;fontSize=15;" vertex="1" parent="1">
                    <mxGeometry x="565" y="890" width="20" height="20" as="geometry"/>
                </mxCell>
                <mxCell id="110" value="C, 2" style="text;html=1;align=center;verticalAlign=middle;resizable=0;points=[];autosize=1;strokeColor=none;fillColor=none;fontSize=15;rotation=-35;" vertex="1" parent="1">
                    <mxGeometry x="298" y="976" width="40" height="20" as="geometry"/>
                </mxCell>
                <mxCell id="117" value="F, 3" style="text;html=1;align=center;verticalAlign=middle;resizable=0;points=[];autosize=1;strokeColor=none;fillColor=none;fontSize=15;" vertex="1" parent="1">
                    <mxGeometry x="477" y="900" width="40" height="20" as="geometry"/>
                </mxCell>
                <mxCell id="118" value="G, 2" style="text;html=1;align=center;verticalAlign=middle;resizable=0;points=[];autosize=1;strokeColor=none;fillColor=none;fontSize=15;" vertex="1" parent="1">
                    <mxGeometry x="620" y="900" width="40" height="20" as="geometry"/>
                </mxCell>
                <mxCell id="119" value="10" style="text;html=1;align=center;verticalAlign=middle;resizable=0;points=[];autosize=1;strokeColor=none;fillColor=none;fontSize=15;" vertex="1" parent="1">
                    <mxGeometry x="719" y="928" width="30" height="20" as="geometry"/>
                </mxCell>
                <mxCell id="120" value="8" style="text;html=1;align=center;verticalAlign=middle;resizable=0;points=[];autosize=1;strokeColor=none;fillColor=none;fontSize=15;" vertex="1" parent="1">
                    <mxGeometry x="578" y="929" width="20" height="20" as="geometry"/>
                </mxCell>
                <mxCell id="121" value="5" style="text;html=1;align=center;verticalAlign=middle;resizable=0;points=[];autosize=1;strokeColor=none;fillColor=none;fontSize=15;" vertex="1" parent="1">
                    <mxGeometry x="434" y="928" width="20" height="20" as="geometry"/>
                </mxCell>
                <mxCell id="122" value="4" style="text;html=1;align=center;verticalAlign=middle;resizable=0;points=[];autosize=1;strokeColor=none;fillColor=none;fontSize=15;" vertex="1" parent="1">
                    <mxGeometry x="282" y="930" width="20" height="20" as="geometry"/>
                </mxCell>
                <mxCell id="123" value="1" style="text;html=1;align=center;verticalAlign=middle;resizable=0;points=[];autosize=1;strokeColor=none;fillColor=none;fontSize=15;" vertex="1" parent="1">
                    <mxGeometry x="204" y="771" width="20" height="20" as="geometry"/>
                </mxCell>
                <mxCell id="124" value="3" style="text;html=1;align=center;verticalAlign=middle;resizable=0;points=[];autosize=1;strokeColor=none;fillColor=none;fontSize=15;" vertex="1" parent="1">
                    <mxGeometry x="205" y="1091" width="20" height="20" as="geometry"/>
                </mxCell>
                <mxCell id="125" value="0" style="text;html=1;align=center;verticalAlign=middle;resizable=0;points=[];autosize=1;strokeColor=none;fillColor=none;fontSize=15;" vertex="1" parent="1">
                    <mxGeometry x="190" y="1122" width="20" height="20" as="geometry"/>
                </mxCell>
                <mxCell id="127" value="0" style="text;html=1;align=center;verticalAlign=middle;resizable=0;points=[];autosize=1;strokeColor=none;fillColor=none;fontSize=15;" vertex="1" parent="1">
                    <mxGeometry x="709" y="960" width="20" height="20" as="geometry"/>
                </mxCell>
                <mxCell id="128" value="0" style="text;html=1;align=center;verticalAlign=middle;resizable=0;points=[];autosize=1;strokeColor=none;fillColor=none;fontSize=15;" vertex="1" parent="1">
                    <mxGeometry x="565" y="960" width="20" height="20" as="geometry"/>
                </mxCell>
                <mxCell id="129" value="0" style="text;html=1;align=center;verticalAlign=middle;resizable=0;points=[];autosize=1;strokeColor=none;fillColor=none;fontSize=15;" vertex="1" parent="1">
                    <mxGeometry x="419" y="960" width="20" height="20" as="geometry"/>
                </mxCell>
                <mxCell id="130" value="0" style="text;html=1;align=center;verticalAlign=middle;resizable=0;points=[];autosize=1;strokeColor=none;fillColor=none;fontSize=15;" vertex="1" parent="1">
                    <mxGeometry x="186" y="801" width="20" height="20" as="geometry"/>
                </mxCell>
                <mxCell id="131" value="0" style="text;html=1;align=center;verticalAlign=middle;resizable=0;points=[];autosize=1;strokeColor=none;fillColor=none;fontSize=15;" vertex="1" parent="1">
                    <mxGeometry x="267" y="960" width="20" height="20" as="geometry"/>
                </mxCell>
                <mxCell id="132" value="0" style="text;html=1;align=center;verticalAlign=middle;resizable=0;points=[];autosize=1;strokeColor=none;fillColor=none;fontSize=15;" vertex="1" parent="1">
                    <mxGeometry x="66" y="960" width="20" height="20" as="geometry"/>
                </mxCell>
                <mxCell id="133" value="0" style="text;html=1;align=center;verticalAlign=middle;resizable=0;points=[];autosize=1;strokeColor=none;fillColor=none;fontSize=15;rotation=-50;" vertex="1" parent="1">
                    <mxGeometry x="132" y="836" width="20" height="20" as="geometry"/>
                </mxCell>
                <mxCell id="134" value="0" style="text;html=1;align=center;verticalAlign=middle;resizable=0;points=[];autosize=1;strokeColor=none;fillColor=none;fontSize=15;rotation=55;" vertex="1" parent="1">
                    <mxGeometry x="102" y="1000" width="20" height="20" as="geometry"/>
                </mxCell>
                <mxCell id="135" value="1" style="text;html=1;align=center;verticalAlign=middle;resizable=0;points=[];autosize=1;strokeColor=none;fillColor=none;fontSize=15;rotation=-65;" vertex="1" parent="1">
                    <mxGeometry x="234" y="990" width="20" height="20" as="geometry"/>
                </mxCell>
                <mxCell id="136" value="0" style="text;html=1;align=center;verticalAlign=middle;resizable=0;points=[];autosize=1;strokeColor=none;fillColor=none;fontSize=15;rotation=-45;" vertex="1" parent="1">
                    <mxGeometry x="322" y="991" width="20" height="20" as="geometry"/>
                </mxCell>
                <mxCell id="137" value="0" style="text;html=1;align=center;verticalAlign=middle;resizable=0;points=[];autosize=1;strokeColor=none;fillColor=none;fontSize=15;rotation=0;" vertex="1" parent="1">
                    <mxGeometry x="340" y="920" width="20" height="20" as="geometry"/>
                </mxCell>
                <mxCell id="138" value="0" style="text;html=1;align=center;verticalAlign=middle;resizable=0;points=[];autosize=1;strokeColor=none;fillColor=none;fontSize=15;rotation=0;" vertex="1" parent="1">
                    <mxGeometry x="487" y="920" width="20" height="20" as="geometry"/>
                </mxCell>
                <mxCell id="139" value="0" style="text;html=1;align=center;verticalAlign=middle;resizable=0;points=[];autosize=1;strokeColor=none;fillColor=none;fontSize=15;rotation=0;" vertex="1" parent="1">
                    <mxGeometry x="630" y="920" width="20" height="20" as="geometry"/>
                </mxCell>
                <mxCell id="140" value="0" style="text;html=1;align=center;verticalAlign=middle;resizable=0;points=[];autosize=1;strokeColor=none;fillColor=none;fontSize=15;rotation=-15;" vertex="1" parent="1">
                    <mxGeometry x="488" y="1060" width="20" height="20" as="geometry"/>
                </mxCell>
                <mxCell id="141" value="* Todos los nodos son criticos&lt;br&gt;* Todas las tareas son criticas&lt;br&gt;&lt;div&gt;&lt;span&gt;* Camino Critico: B, H&lt;/span&gt;&lt;/div&gt;&lt;div&gt;&lt;span&gt;* Duracion: 10 dias&lt;/span&gt;&lt;/div&gt;" style="text;html=1;align=left;verticalAlign=middle;resizable=0;points=[];autosize=1;strokeColor=none;fillColor=none;fontSize=15;" vertex="1" parent="1">
                    <mxGeometry x="440" y="721" width="210" height="80" as="geometry"/>
                </mxCell>
                <mxCell id="142" value="0" style="text;html=1;align=center;verticalAlign=middle;resizable=0;points=[];autosize=1;strokeColor=none;fillColor=none;fontSize=15;rotation=60;" vertex="1" parent="1">
                    <mxGeometry x="222" y="830" width="20" height="20" as="geometry"/>
                </mxCell>
                <mxCell id="143" value="3) Caminos Criticos existentes:&lt;br&gt;* B, H&lt;br&gt;* B, C, F, G&lt;br&gt;* A, D, E, F, G" style="text;html=1;align=left;verticalAlign=middle;resizable=0;points=[];autosize=1;strokeColor=none;fillColor=none;fontSize=15;" vertex="1" parent="1">
                    <mxGeometry x="560" y="405" width="220" height="80" as="geometry"/>
                </mxCell>
                <mxCell id="144" value="4) Si la tarea C se retrasa por 1 dia, &lt;br&gt;todo el proyecto se atrasa por 1 dia. &lt;br&gt;Modifica la duracion total del mismo&amp;nbsp;" style="text;html=1;align=left;verticalAlign=middle;resizable=0;points=[];autosize=1;strokeColor=none;fillColor=none;fontSize=15;" vertex="1" parent="1">
                    <mxGeometry x="560" y="595" width="260" height="60" as="geometry"/>
                </mxCell>
            </root>
        </mxGraphModel>
    </diagram>
</mxfile>